<?xml version="1.0" standalone="no"?>
<!DOCTYPE svg PUBLIC "-//W3C//DTD SVG 20010904//EN"
 "http://www.w3.org/TR/2001/REC-SVG-20010904/DTD/svg10.dtd">
<svg version="1.0" xmlns="http://www.w3.org/2000/svg"
 width="16.000000pt" height="16.000000pt" viewBox="0 0 16.000000 16.000000"
 preserveAspectRatio="xMidYMid meet">
<metadata>
Created by potrace 1.11, written by Peter Selinger 2001-2013
</metadata>
<g transform="translate(0.000000,16.000000) scale(0.002286,-0.002286)"
fill="#000000" stroke="none">
<path d="M1142 6593 l-2 -233 -332 -3 -333 -2 333 -3 c238 -1 332 -5 332 -13
0 -8 -15 -10 -49 -5 -46 6 -51 4 -110 -39 -33 -25 -65 -45 -70 -45 -5 0 -11
-3 -13 -8 -1 -4 -22 -22 -45 -40 -24 -19 -43 -38 -43 -42 0 -5 16 -12 35 -16
58 -11 28 -25 -43 -21 l-67 4 -91 -63 c-51 -35 -94 -70 -97 -78 -8 -21 77
-106 107 -106 37 0 56 -10 56 -31 0 -11 9 -35 19 -55 24 -45 19 -90 -15 -121
-22 -20 -23 -24 -9 -40 8 -10 15 -21 15 -26 0 -4 6 -22 14 -41 7 -18 17 -53
21 -77 4 -24 14 -57 22 -72 12 -23 14 -73 12 -253 -1 -124 -6 -227 -11 -230
-5 -3 -4 -12 2 -19 9 -11 7 -21 -6 -44 -16 -28 -16 -32 -1 -73 19 -48 24 -193
7 -203 -5 -3 -10 -17 -10 -31 0 -14 4 -22 10 -19 6 4 10 -13 10 -44 l0 -50
-127 -4 -128 -3 128 -2 127 -2 0 -54 c0 -30 -3 -56 -8 -58 -4 -1 -25 -25 -47
-52 -35 -43 -37 -49 -23 -60 11 -8 19 -35 24 -77 3 -35 11 -69 16 -76 16 -21
20 -144 4 -162 -27 -32 -29 -61 -6 -86 30 -32 21 -63 -30 -104 -22 -17 -40
-38 -40 -45 0 -7 -11 -22 -25 -34 -14 -12 -25 -27 -25 -32 0 -6 -11 -15 -25
-20 -30 -11 -33 -48 -10 -104 l15 -36 -152 -2 -153 -1 184 -7 c182 -6 184 -6
200 -30 8 -14 32 -42 53 -62 l38 -37 0 -185 c0 -117 4 -194 11 -210 22 -48
130 -73 194 -44 21 9 25 18 25 51 0 32 9 50 43 93 27 35 50 53 64 54 22 0 23
-2 26 -152 l3 -153 2 153 c2 151 2 153 26 162 13 5 28 19 33 32 5 14 10 -100
13 -282 l5 -305 3 322 c1 177 5 328 8 337 3 8 26 25 50 37 24 11 49 30 55 40
9 17 22 19 129 19 l120 0 0 -195 0 -195 35 -17 35 -17 2 -165 2 -166 3 162 3
162 65 -1 c36 0 71 5 79 11 7 6 16 30 19 53 7 53 76 125 130 138 l36 8 4 -147
3 -146 2 151 c2 139 4 152 23 170 12 10 29 35 38 54 12 25 26 37 52 45 64 18
82 43 110 150 8 33 23 59 43 77 l31 28 190 2 190 2 -190 6 -190 5 35 33 c24
22 44 32 67 32 21 0 33 5 33 13 0 7 8 22 18 33 17 18 28 49 35 94 2 12 -19 17
-98 26 -55 7 -103 13 -107 13 -5 1 -8 16 -8 35 0 19 -11 58 -25 88 -14 29 -25
67 -25 85 0 17 -5 44 -11 60 -11 29 3 139 23 176 6 13 5 23 -4 34 -7 9 -14 41
-15 72 -2 81 -12 116 -39 142 -13 12 -24 31 -24 41 0 17 19 18 318 21 l317 2
-317 3 -318 2 4 553 c4 581 6 609 25 646 7 12 10 28 7 36 -2 7 6 23 20 36 30
28 30 37 3 41 -16 2 -26 16 -37 51 -13 42 -13 49 0 65 9 9 19 27 22 38 4 14
26 30 56 43 40 17 50 26 50 45 0 16 12 31 40 50 22 14 40 28 40 30 0 2 -52 16
-115 31 l-115 27 0 104 0 104 93 2 92 2 -90 3 c-55 3 -92 8 -97 16 -6 9 -8 9
-8 0 0 -9 -21 -13 -70 -13 l-69 0 -4 148 -3 147 -2 -147 -2 -148 -165 0 -165
0 -3 163 -3 162 -2 -162 -2 -163 -215 0 -215 0 -3 163 -3 162 -2 -162 -2 -163
-35 0 -35 0 -3 233 -2 232 -3 -232z m48 -248 c0 -2 -9 -9 -20 -15 -16 -9 -20
-8 -20 5 0 8 9 15 20 15 11 0 20 -2 20 -5z m313 -65 c104 -23 112 -33 47 -60
-24 -10 -30 -19 -30 -41 0 -21 -5 -29 -17 -29 -13 0 -15 -2 -5 -9 9 -5 -5 -16
-45 -34 -32 -15 -52 -27 -45 -27 19 0 14 -19 -13 -44 -25 -24 -34 -69 -15 -81
14 -9 12 -45 -2 -46 -7 0 3 -5 22 -11 l35 -10 -27 -23 c-20 -17 -24 -25 -15
-34 9 -9 8 -16 -1 -31 -6 -11 -12 -36 -12 -55 0 -28 -5 -38 -22 -45 -18 -7
-19 -9 -5 -9 15 -1 16 -7 11 -43 -3 -24 -10 -58 -14 -76 -5 -19 -5 -30 1 -27
8 6 17 -747 9 -785 -2 -8 -5 -73 -7 -144 -4 -121 -3 -130 18 -152 l21 -23 -38
-4 c-37 -3 -37 -4 9 -5 40 -2 47 -5 47 -22 0 -11 -5 -20 -12 -20 -6 0 -4 -6 6
-13 14 -11 16 -22 10 -80 -5 -51 -11 -67 -23 -68 -13 -1 -12 -2 2 -6 10 -3 16
-10 14 -17 -3 -6 -2 -29 2 -51 4 -23 2 -57 -5 -80 -6 -22 -8 -49 -3 -60 4 -11
8 -43 8 -71 1 -40 7 -60 31 -92 30 -43 36 -67 21 -90 -6 -10 -34 -11 -124 -6
l-117 7 0 218 c0 169 3 219 13 219 9 0 9 2 1 8 -17 10 -13 174 4 179 9 4 12
-20 13 -94 1 -54 3 -90 6 -80 3 12 16 17 46 19 l42 1 -42 4 -43 4 0 75 0 74
43 2 42 1 -42 4 c-35 3 -43 8 -43 24 0 10 6 19 13 20 9 0 9 2 -1 6 -10 4 -12
131 -12 628 l1 624 27 4 c23 3 21 4 -8 6 l-35 1 3 -654 c2 -576 0 -654 -13
-660 -10 -4 -15 1 -15 14 0 11 6 20 13 21 9 0 9 2 -1 6 -10 4 -12 152 -12 710
0 657 2 707 18 719 15 12 15 12 -5 7 -18 -4 -23 -1 -23 14 0 10 4 23 10 29 5
5 10 50 12 99 l3 90 30 6 c30 7 30 7 3 8 -15 0 -30 -4 -34 -10 -4 -7 -13 0
-25 17 -14 22 -16 31 -6 43 9 11 9 13 0 8 -8 -5 -17 11 -27 47 -9 30 -16 59
-16 64 0 14 41 43 52 36 4 -3 5 1 2 9 -4 12 13 11 93 -8 54 -13 142 -33 196
-45z m157 15 c0 -47 -3 -55 -19 -55 -10 0 -21 6 -24 14 -4 9 -59 26 -144 46
-76 17 -151 36 -168 40 -19 5 43 9 163 9 l192 1 0 -55z m340 -33 c0 -49 -2
-91 -5 -94 -3 -3 -43 2 -88 12 -45 10 -117 26 -159 35 l-78 17 0 59 0 59 165
0 165 0 0 -88z m150 -12 c0 -112 5 -106 -80 -86 l-55 12 -3 87 -3 87 71 0 70
0 0 -100z m-1020 62 c8 -4 16 -14 17 -22 1 -8 9 -41 17 -72 8 -32 10 -58 6
-58 -5 0 2 -11 16 -25 14 -14 22 -30 19 -35 -3 -6 -1 -10 4 -10 17 0 14 -155
-3 -169 -8 -7 -12 -21 -9 -32 4 -12 0 -25 -8 -30 -11 -7 -10 -9 4 -9 15 0 17
-10 17 -75 l0 -75 -35 0 -35 0 0 -77 c0 -86 -15 -130 -24 -72 -14 89 -13 104
3 124 15 18 15 19 -1 6 -22 -16 -38 -6 -38 23 0 13 -7 29 -15 36 -23 19 -19
69 8 91 l22 20 -28 -17 c-22 -13 -30 -14 -42 -4 -13 11 -11 16 20 37 19 13 35
26 35 29 0 3 -5 2 -11 -1 -7 -5 -8 7 -4 39 6 37 4 51 -10 66 -12 13 -16 30
-13 53 3 30 1 33 -13 24 -27 -17 -83 0 -108 34 -13 17 -36 35 -52 41 -17 6
-29 14 -27 19 2 5 46 40 98 78 81 60 101 70 135 70 22 0 47 -3 55 -7z m663
-120 c113 -25 164 -41 158 -47 -7 -7 -6 -26 4 -59 19 -63 19 -76 -2 -77 -12
-1 -9 -4 7 -8 17 -5 25 -14 24 -29 0 -12 3 -22 8 -22 4 0 8 -43 8 -95 0 -92
-1 -95 -22 -96 -13 0 -17 -3 -10 -6 6 -2 12 -11 12 -19 0 -8 5 -14 10 -14 7 0
10 -268 10 -785 0 -741 -1 -785 -17 -786 -17 -1 -17 -2 0 -6 15 -4 17 -23 17
-218 0 -138 -4 -216 -10 -220 -15 -9 -304 15 -308 26 -2 5 -34 9 -70 9 -37 0
-83 3 -103 6 -32 5 -35 8 -31 35 3 20 -5 42 -25 73 -25 37 -31 59 -36 126 -4
47 -2 91 4 108 6 15 7 43 4 62 -9 46 -10 44 17 52 13 3 16 6 7 7 -19 1 -19 1
-22 133 -1 69 -6 108 -13 108 -6 0 -21 11 -33 24 -21 22 -22 30 -18 147 2 68
5 323 5 566 1 293 6 458 13 490 6 26 11 60 10 75 -1 15 3 29 9 33 5 3 10 18
10 33 0 14 11 38 26 53 l26 27 -30 7 c-22 4 -31 13 -35 33 -3 15 -8 34 -12 43
-3 9 5 27 20 45 41 47 46 54 38 54 -20 1 25 20 47 20 18 0 21 3 11 9 -11 7 -9
10 8 16 16 5 21 14 21 38 0 24 7 36 28 49 37 22 45 22 235 -20z m384 -67 c205
-49 191 -43 149 -71 -21 -14 -36 -33 -36 -44 0 -23 -64 -59 -107 -61 -17 -1
-21 -3 -10 -6 22 -6 22 -39 1 -51 -17 -9 -16 -46 1 -99 6 -20 4 -23 -21 -23
-16 1 -49 5 -74 10 -29 5 -49 5 -57 -2 -10 -8 -13 9 -13 79 0 57 4 94 13 102
9 10 9 12 0 7 -7 -4 -18 4 -26 21 -15 28 -42 142 -35 147 12 10 45 25 55 26 6
0 78 -16 160 -35z m-1257 -40 c0 -10 17 -17 51 -21 44 -6 50 -9 45 -26 -2 -11
-2 -17 1 -14 4 3 14 -8 24 -24 27 -44 16 -110 -22 -136 -29 -19 -29 -19 -9
-36 26 -21 25 -32 -2 -52 -23 -16 -23 -16 -1 -6 30 14 33 13 33 -9 0 -10 7
-24 15 -31 8 -7 15 -20 15 -30 0 -10 7 -34 15 -53 8 -20 15 -56 15 -79 0 -43
-1 -44 -70 -87 l-70 -43 0 -109 c0 -60 2 -109 5 -109 3 0 36 20 75 45 62 39
70 42 70 25 0 -11 -3 -20 -7 -20 -5 0 -19 -10 -33 -21 l-25 -21 27 16 c35 20
38 20 38 -3 0 -11 -12 -29 -27 -41 l-28 -22 28 16 c26 16 27 16 27 -7 0 -18
-16 -33 -75 -68 l-74 -44 -1 -337 c0 -186 2 -338 4 -338 2 0 26 9 52 20 26 11
48 19 50 17 2 -2 -8 -15 -21 -29 -20 -22 -22 -28 -11 -38 8 -6 16 -27 19 -48
3 -20 9 -51 12 -69 6 -29 4 -34 -26 -53 -23 -14 -26 -19 -12 -15 13 3 30 2 39
-3 14 -8 14 -10 -1 -25 -9 -10 -12 -17 -7 -17 16 0 35 -115 27 -167 -8 -56
-18 -76 -57 -122 -29 -33 -33 -58 -17 -110 3 -9 -14 -20 -48 -32 l-53 -18 0
193 0 192 33 18 c29 15 20 15 -18 0 -28 -11 -17 34 13 50 15 8 23 15 19 16 -5
0 -17 -5 -28 -10 -19 -11 -19 1 -19 773 l0 785 23 16 c21 16 21 16 0 6 -21
-10 -21 -9 -25 123 -3 126 -4 136 -31 175 -26 40 -27 43 -11 67 13 20 20 23
35 14 10 -5 19 -16 19 -24z m-70 16 c0 -6 -4 -12 -10 -16 -5 -3 4 -26 20 -52
34 -54 37 -70 13 -76 -14 -4 -13 -5 4 -6 l23 -1 0 -215 c-1 -196 -2 -215 -18
-216 -16 -1 -16 -2 1 -6 16 -4 17 -41 17 -589 0 -549 -1 -584 -17 -585 -16 -1
-16 -2 -2 -6 14 -3 17 -21 18 -114 l2 -109 -43 -2 -43 -1 43 -4 c55 -5 59 -32
5 -35 l-38 -1 38 -4 37 -4 -2 -187 -3 -187 -119 -42 c-66 -24 -121 -41 -124
-38 -6 6 4 18 77 92 41 42 51 59 51 87 0 21 -6 36 -15 40 -19 7 -19 37 0 62 9
12 14 43 15 85 0 58 3 67 23 78 l22 11 -24 -6 c-27 -7 -41 8 -41 48 0 15 -5
39 -12 53 -9 21 -9 31 0 46 10 15 9 19 -2 19 -35 0 -23 21 24 41 28 12 49 24
46 26 -2 3 -18 -3 -35 -11 -35 -18 -41 -19 -41 -7 0 5 14 18 31 29 l31 19 -1
124 c-1 74 -6 126 -13 130 -7 4 -7 9 1 13 14 9 15 202 1 211 -14 8 -13 62 1
71 7 4 9 21 6 40 -3 19 -2 34 4 34 5 0 9 86 9 210 0 184 -2 218 -20 267 -15
43 -17 60 -8 70 9 11 8 13 -2 11 -12 -3 -19 13 -37 92 -3 14 -12 33 -21 43 -8
9 -13 19 -11 20 52 41 81 56 114 60 22 2 15 3 -16 2 -53 -3 -56 -2 -52 20 3
12 -5 41 -17 65 -12 23 -19 48 -16 56 6 16 -18 31 -59 36 -28 4 -105 68 -105
88 0 5 39 36 87 69 82 58 90 61 145 61 32 0 58 -4 58 -9z m1359 -356 c10 -11
-25 -35 -53 -36 -30 -2 -30 -2 -3 -6 21 -3 27 -10 27 -28 0 -13 -5 -27 -11
-30 -5 -4 -9 -21 -7 -38 3 -28 -1 -32 -27 -38 -29 -6 -29 -7 -4 -8 26 -1 26
-3 22 -48 -3 -27 -12 -64 -19 -83 -13 -31 -12 -33 1 -16 13 18 15 -21 15 -365
1 -211 1 -446 0 -521 -1 -133 0 -137 22 -150 21 -12 18 -13 -42 -19 l-65 -6
68 -1 c59 -2 67 -4 67 -21 0 -16 -8 -21 -47 -24 l-48 -3 53 -2 c28 -1 52 -5
52 -9 1 -5 2 -36 3 -70 l2 -62 -35 -4 c-32 -3 -32 -4 8 -5 60 -3 43 -22 -21
-24 l-52 -2 47 -3 c54 -5 64 -20 47 -70 -6 -19 -8 -51 -5 -71 18 -121 25 -151
44 -192 12 -25 22 -58 22 -74 0 -28 0 -29 -46 -22 -26 3 -60 6 -75 6 -26 0
-29 3 -31 38 -1 36 -1 36 -5 5 -4 -32 -6 -33 -49 -33 l-44 0 1 295 c0 183 4
295 10 295 6 0 9 -34 8 -81 -2 -76 10 -115 25 -90 4 6 2 11 -3 11 -25 0 -9 20
17 21 l27 2 -28 4 -28 4 1 699 c1 645 3 699 18 703 11 3 8 5 -8 6 l-25 1 3
-610 c1 -412 -1 -610 -8 -610 -14 0 -14 1329 1 1346 7 9 5 11 -8 10 -11 0 -19
7 -21 20 -5 35 31 42 122 27 44 -8 83 -16 85 -18z m-999 -705 l-1 -650 -27 -1
-27 -2 27 -4 27 -4 1 -309 0 -309 -34 6 c-20 3 -55 -2 -85 -12 -41 -13 -55
-14 -66 -5 -24 20 -17 54 21 103 53 68 68 141 47 225 -13 51 -14 69 -4 84 9
15 8 20 -5 25 -14 5 -13 8 7 20 15 9 17 12 5 9 -13 -5 -17 -2 -12 9 3 9 -2 34
-10 55 -9 22 -14 49 -11 60 3 11 1 23 -4 26 -15 9 -10 20 14 33 14 8 16 10 3
6 -14 -4 -9 6 18 39 l36 44 0 110 c0 84 -3 112 -15 122 -11 9 -12 17 -5 30 6
11 10 167 10 389 0 241 4 371 10 371 7 0 10 -187 10 -540 0 -425 -3 -540 -12
-540 -9 0 -9 -3 1 -9 8 -5 11 -16 8 -26 -4 -9 -3 -14 3 -10 6 3 10 15 10 26 0
10 6 19 13 20 9 0 9 2 0 6 -10 4 -13 139 -13 629 l0 624 30 0 30 0 0 -650z
m-100 376 l0 -93 -62 -39 c-34 -21 -66 -40 -70 -42 -5 -2 -8 39 -8 92 l0 96
63 40 c34 22 65 40 70 40 4 0 7 -42 7 -94z m-15 -666 c-14 -15 -14 -18 0 -30
20 -16 22 -234 3 -247 -7 -4 -39 -20 -70 -35 l-58 -27 0 327 0 327 68 41 67
40 3 -189 c2 -160 0 -193 -13 -207z m945 -420 c0 -11 -4 -20 -10 -20 -5 0 -10
9 -10 20 0 11 5 20 10 20 6 0 10 -9 10 -20z m-635 -590 c127 -6 236 -13 244
-16 10 -3 10 -10 -5 -32 -9 -15 -26 -34 -36 -43 -10 -9 -18 -26 -18 -38 0 -17
-6 -21 -34 -21 -19 0 -36 -5 -38 -11 -3 -9 -50 -9 -178 -3 l-175 9 -238 -78
c-280 -92 -294 -93 -321 -22 -10 25 -16 52 -14 62 2 13 75 43 273 114 149 54
279 96 290 94 11 -2 124 -9 250 -15z m505 -49 l45 -6 3 -69 3 -69 -148 8
c-170 8 -307 21 -250 24 30 1 37 5 37 22 0 22 22 49 39 49 6 0 11 8 11 18 0
37 19 42 120 36 52 -4 115 -10 140 -13z m335 -11 c248 -27 237 -24 229 -58 -4
-15 -11 -28 -16 -30 -4 -2 -8 -10 -8 -18 0 -8 -4 -14 -10 -14 -5 0 -10 -7 -10
-16 0 -15 -11 -16 -92 -10 -51 3 -155 9 -230 13 l-138 6 0 68 c0 91 -8 89 275
59z m-882 -117 c89 -4 125 -9 117 -17 -5 -5 -10 -16 -10 -23 0 -18 -50 -73
-67 -73 -7 0 -13 -10 -13 -23 0 -13 -7 -32 -15 -43 -8 -10 -15 -32 -15 -47 0
-16 -4 -26 -10 -22 -6 3 -7 -1 -4 -9 9 -24 -32 -73 -72 -86 -31 -10 -40 -22
-64 -76 l-29 -64 -43 0 c-24 0 -50 -5 -58 -10 -8 -5 -12 -10 -7 -10 4 0 -11
-23 -33 -51 -30 -38 -40 -60 -40 -87 0 -32 -5 -39 -30 -50 -20 -9 -47 -12 -80
-7 -42 6 -50 10 -51 28 0 12 -3 16 -6 9 -4 -10 -8 -10 -19 -1 -11 9 -14 53
-14 215 l0 204 -23 9 c-27 11 -79 69 -75 83 6 17 439 156 488 157 25 1 103 -2
173 -6z m427 -19 c69 -4 133 -10 142 -13 12 -4 -46 -28 -158 -65 l-176 -58
-94 7 c-52 4 -94 9 -94 11 0 2 18 22 40 45 22 23 40 47 40 52 0 26 36 38 105
33 39 -3 126 -8 195 -12z m499 -21 l74 -6 -26 -19 c-15 -11 -27 -24 -27 -30 0
-6 -18 -28 -40 -49 -22 -21 -40 -45 -40 -53 0 -8 -4 -18 -10 -21 -5 -3 -10
-21 -10 -39 0 -50 -38 -98 -90 -116 -34 -12 -49 -24 -62 -50 -22 -49 -59 -80
-100 -86 -31 -5 -38 -2 -57 25 -28 38 -50 39 -82 4 l-24 -28 26 23 c33 29 49
28 75 -5 l22 -28 -49 -52 c-39 -41 -49 -59 -49 -85 0 -19 -5 -39 -12 -46 -17
-17 -111 -15 -158 4 l-40 16 -2 197 -3 196 -118 6 c-65 4 -120 8 -121 10 -2 2
4 29 13 59 l17 55 109 -3 110 -3 205 70 205 71 95 -5 c52 -3 128 -8 169 -12z"/>
<path d="M1221 6305 c1 -19 18 -51 18 -35 0 8 -4 22 -9 30 -5 8 -9 11 -9 5z"/>
<path d="M1241 6230 c0 -15 -4 -30 -8 -36 -5 -5 -2 -4 5 2 8 6 12 22 9 35 -4
24 -4 24 -6 -1z"/>
<path d="M1268 6193 c7 -3 16 -2 19 1 4 3 -2 6 -13 5 -11 0 -14 -3 -6 -6z"/>
<path d="M1308 6183 c6 -2 18 -2 25 0 6 3 1 5 -13 5 -14 0 -19 -2 -12 -5z"/>
<path d="M1358 6173 c7 -3 16 -2 19 1 4 3 -2 6 -13 5 -11 0 -14 -3 -6 -6z"/>
<path d="M1408 6163 c7 -3 16 -2 19 1 4 3 -2 6 -13 5 -11 0 -14 -3 -6 -6z"/>
<path d="M1448 6153 c6 -2 18 -2 25 0 6 3 1 5 -13 5 -14 0 -19 -2 -12 -5z"/>
<path d="M1308 6103 c6 -2 18 -2 25 0 6 3 1 5 -13 5 -14 0 -19 -2 -12 -5z"/>
<path d="M1358 6093 c6 -2 18 -2 25 0 6 3 1 5 -13 5 -14 0 -19 -2 -12 -5z"/>
<path d="M1278 5923 c7 -3 16 -2 19 1 4 3 -2 6 -13 5 -11 0 -14 -3 -6 -6z"/>
<path d="M1328 5913 c6 -2 18 -2 25 0 6 3 1 5 -13 5 -14 0 -19 -2 -12 -5z"/>
<path d="M1278 5863 c6 -2 18 -2 25 0 6 3 1 5 -13 5 -14 0 -19 -2 -12 -5z"/>
<path d="M1338 5853 c7 -3 16 -2 19 1 4 3 -2 6 -13 5 -11 0 -14 -3 -6 -6z"/>
<path d="M1270 5573 c0 -6 9 -21 21 -34 l20 -24 -17 30 c-24 39 -24 40 -24 28z"/>
<path d="M1303 4193 c15 -2 37 -2 50 0 12 2 0 4 -28 4 -27 0 -38 -2 -22 -4z"/>
<path d="M1054 6168 c-4 -7 -3 -8 5 -4 8 5 16 -3 24 -23 9 -24 17 -31 37 -30
21 2 22 2 4 6 -26 5 -50 49 -31 57 7 2 2 5 -10 5 -12 1 -25 -4 -29 -11z"/>
<path d="M1118 6163 c6 -2 18 -2 25 0 6 3 1 5 -13 5 -14 0 -19 -2 -12 -5z"/>
<path d="M975 6114 l-30 -26 33 22 c17 12 32 23 32 26 0 7 -4 5 -35 -22z"/>
<path d="M1158 6103 c6 -2 18 -2 25 0 6 3 1 5 -13 5 -14 0 -19 -2 -12 -5z"/>
<path d="M1096 5912 c-2 -4 12 -6 32 -4 56 5 62 10 15 11 -23 1 -44 -3 -47 -7z"/>
<path d="M1538 6093 c7 -3 16 -2 19 1 4 3 -2 6 -13 5 -11 0 -14 -3 -6 -6z"/>
<path d="M1578 6083 c7 -3 16 -2 19 1 4 3 -2 6 -13 5 -11 0 -14 -3 -6 -6z"/>
<path d="M1628 6073 c7 -3 16 -2 19 1 4 3 -2 6 -13 5 -11 0 -14 -3 -6 -6z"/>
<path d="M1468 6063 c6 -2 18 -2 25 0 6 3 1 5 -13 5 -14 0 -19 -2 -12 -5z"/>
<path d="M1668 6063 c6 -2 18 -2 25 0 6 3 1 5 -13 5 -14 0 -19 -2 -12 -5z"/>
<path d="M1518 6053 c7 -3 16 -2 19 1 4 3 -2 6 -13 5 -11 0 -14 -3 -6 -6z"/>
<path d="M1718 6053 c7 -3 16 -2 19 1 4 3 -2 6 -13 5 -11 0 -14 -3 -6 -6z"/>
<path d="M1568 6043 c7 -3 16 -2 19 1 4 3 -2 6 -13 5 -11 0 -14 -3 -6 -6z"/>
<path d="M1768 6043 c7 -3 16 -2 19 1 4 3 -2 6 -13 5 -11 0 -14 -3 -6 -6z"/>
<path d="M1608 6033 c6 -2 18 -2 25 0 6 3 1 5 -13 5 -14 0 -19 -2 -12 -5z"/>
<path d="M1808 6033 c7 -3 16 -2 19 1 4 3 -2 6 -13 5 -11 0 -14 -3 -6 -6z"/>
<path d="M1658 6023 c7 -3 16 -2 19 1 4 3 -2 6 -13 5 -11 0 -14 -3 -6 -6z"/>
<path d="M1858 6023 c7 -3 16 -2 19 1 4 3 -2 6 -13 5 -11 0 -14 -3 -6 -6z"/>
<path d="M1708 6013 c7 -3 16 -2 19 1 4 3 -2 6 -13 5 -11 0 -14 -3 -6 -6z"/>
<path d="M1908 6013 c7 -3 16 -2 19 1 4 3 -2 6 -13 5 -11 0 -14 -3 -6 -6z"/>
<path d="M1748 6003 c6 -2 18 -2 25 0 6 3 1 5 -13 5 -14 0 -19 -2 -12 -5z"/>
<path d="M1798 5993 c7 -3 16 -2 19 1 4 3 -2 6 -13 5 -11 0 -14 -3 -6 -6z"/>
<path d="M1848 5983 c7 -3 16 -2 19 1 4 3 -2 6 -13 5 -11 0 -14 -3 -6 -6z"/>
<path d="M1898 5973 c7 -3 16 -2 19 1 4 3 -2 6 -13 5 -11 0 -14 -3 -6 -6z"/>
<path d="M1938 5963 c7 -3 16 -2 19 1 4 3 -2 6 -13 5 -11 0 -14 -3 -6 -6z"/>
<path d="M1438 5853 c6 -2 18 -2 25 0 6 3 1 5 -13 5 -14 0 -19 -2 -12 -5z"/>
<path d="M1498 5843 c7 -3 16 -2 19 1 4 3 -2 6 -13 5 -11 0 -14 -3 -6 -6z"/>
<path d="M1548 5833 c6 -2 18 -2 25 0 6 3 1 5 -13 5 -14 0 -19 -2 -12 -5z"/>
<path d="M1598 5823 c6 -2 18 -2 25 0 6 3 1 5 -13 5 -14 0 -19 -2 -12 -5z"/>
<path d="M1648 5813 c6 -2 18 -2 25 0 6 3 1 5 -13 5 -14 0 -19 -2 -12 -5z"/>
<path d="M1708 5803 c7 -3 16 -2 19 1 4 3 -2 6 -13 5 -11 0 -14 -3 -6 -6z"/>
<path d="M1758 5793 c7 -3 16 -2 19 1 4 3 -2 6 -13 5 -11 0 -14 -3 -6 -6z"/>
<path d="M1808 5783 c6 -2 18 -2 25 0 6 3 1 5 -13 5 -14 0 -19 -2 -12 -5z"/>
<path d="M1858 5773 c6 -2 18 -2 25 0 6 3 1 5 -13 5 -14 0 -19 -2 -12 -5z"/>
<path d="M1918 5763 c7 -3 16 -2 19 1 4 3 -2 6 -13 5 -11 0 -14 -3 -6 -6z"/>
<path d="M1398 5613 c6 -2 18 -2 25 0 6 3 1 5 -13 5 -14 0 -19 -2 -12 -5z"/>
<path d="M1448 5603 c6 -2 18 -2 25 0 6 3 1 5 -13 5 -14 0 -19 -2 -12 -5z"/>
<path d="M1508 5593 c6 -2 18 -2 25 0 6 3 1 5 -13 5 -14 0 -19 -2 -12 -5z"/>
<path d="M1568 5583 c6 -2 18 -2 25 0 6 3 1 5 -13 5 -14 0 -19 -2 -12 -5z"/>
<path d="M1637 5573 c22 -4 23 -8 25 -161 l3 -157 25 -2 c22 -1 22 -1 3 4 -22
4 -23 8 -25 161 l-3 157 -25 2 c-22 1 -22 1 -3 -4z"/>
<path d="M1688 5563 c6 -2 18 -2 25 0 6 3 1 5 -13 5 -14 0 -19 -2 -12 -5z"/>
<path d="M1410 5451 l0 -109 73 -12 c39 -6 85 -13 100 -16 l28 -6 -3 109 -3
108 -70 12 c-38 7 -82 15 -97 17 l-28 6 0 -109z m138 72 l42 -6 0 -95 0 -95
-52 7 c-29 4 -68 9 -85 12 l-33 6 0 95 0 96 43 -7 c23 -4 61 -10 85 -13z"/>
<path d="M1748 5553 c6 -2 18 -2 25 0 6 3 1 5 -13 5 -14 0 -19 -2 -12 -5z"/>
<path d="M1808 5543 c6 -2 18 -2 25 0 6 3 1 5 -13 5 -14 0 -19 -2 -12 -5z"/>
<path d="M1868 5533 c6 -2 18 -2 25 0 6 3 1 5 -13 5 -14 0 -19 -2 -12 -5z"/>
<path d="M1938 5523 c22 -4 22 -7 22 -153 0 -133 -2 -149 -17 -153 -14 -4 -12
-5 5 -6 l23 -1 -3 158 -3 157 -25 1 c-22 1 -22 0 -2 -3z"/>
<path d="M1730 5402 l0 -110 75 -11 c125 -18 115 -27 115 93 l0 104 -67 11
c-38 6 -80 14 -95 17 l-28 6 0 -110z m108 78 l72 -12 0 -95 0 -95 -32 6 c-18
3 -57 8 -85 12 l-53 7 0 98 c0 74 3 97 13 94 6 -2 45 -9 85 -15z"/>
<path d="M1413 5293 c9 -2 23 -2 30 0 6 3 -1 5 -18 5 -16 0 -22 -2 -12 -5z"/>
<path d="M1478 5283 c6 -2 18 -2 25 0 6 3 1 5 -13 5 -14 0 -19 -2 -12 -5z"/>
<path d="M1543 5273 c9 -2 23 -2 30 0 6 3 -1 5 -18 5 -16 0 -22 -2 -12 -5z"/>
<path d="M1613 5263 c9 -2 23 -2 30 0 6 3 -1 5 -18 5 -16 0 -22 -2 -12 -5z"/>
<path d="M1393 5243 c9 -2 23 -2 30 0 6 3 -1 5 -18 5 -16 0 -22 -2 -12 -5z"/>
<path d="M1743 5243 c9 -2 23 -2 30 0 6 3 -1 5 -18 5 -16 0 -22 -2 -12 -5z"/>
<path d="M1463 5233 c9 -2 23 -2 30 0 6 3 -1 5 -18 5 -16 0 -22 -2 -12 -5z"/>
<path d="M1808 5233 c6 -2 18 -2 25 0 6 3 1 5 -13 5 -14 0 -19 -2 -12 -5z"/>
<path d="M1533 5223 c9 -2 23 -2 30 0 6 3 -1 5 -18 5 -16 0 -22 -2 -12 -5z"/>
<path d="M1878 5223 c6 -2 18 -2 25 0 6 3 1 5 -13 5 -14 0 -19 -2 -12 -5z"/>
<path d="M1603 5213 c9 -2 23 -2 30 0 6 3 -1 5 -18 5 -16 0 -22 -2 -12 -5z"/>
<path d="M1658 4810 l-3 -400 35 1 c30 2 31 3 8 6 l-28 4 0 389 0 389 23 4
c19 4 18 4 -5 6 l-28 1 -2 -400z"/>
<path d="M1743 5193 c9 -2 23 -2 30 0 6 3 -1 5 -18 5 -16 0 -22 -2 -12 -5z"/>
<path d="M1813 5183 c9 -2 23 -2 30 0 6 3 -1 5 -18 5 -16 0 -22 -2 -12 -5z"/>
<path d="M1410 4836 l0 -344 28 -6 c15 -3 60 -8 100 -11 l72 -7 0 345 0 345
-75 11 c-42 6 -87 11 -100 11 l-25 0 0 -344z m138 318 l52 -7 0 -334 0 -334
-47 6 c-27 3 -67 8 -90 11 l-43 5 0 336 0 336 38 -6 c20 -3 61 -9 90 -13z"/>
<path d="M1883 5173 c9 -2 23 -2 30 0 6 3 -1 5 -18 5 -16 0 -22 -2 -12 -5z"/>
<path d="M1948 5162 c10 -7 12 -91 10 -395 -2 -213 0 -387 5 -387 4 0 7 178 7
395 0 370 -1 395 -17 395 -13 0 -15 -2 -5 -8z"/>
<path d="M1730 4801 l0 -351 28 0 c15 0 57 -3 95 -7 l67 -6 0 341 0 340 -27 6
c-16 3 -50 8 -78 11 -27 4 -58 9 -67 12 -17 4 -18 -17 -18 -346z m148 313 l32
-6 0 -330 0 -329 -72 6 c-40 4 -79 8 -85 10 -10 3 -13 79 -13 336 l0 332 53
-7 c28 -4 67 -9 85 -12z"/>
<path d="M1478 4433 c12 -2 30 -2 40 0 9 3 -1 5 -23 4 -22 0 -30 -2 -17 -4z"/>
<path d="M1573 4423 c9 -2 25 -2 35 0 9 3 1 5 -18 5 -19 0 -27 -2 -17 -5z"/>
<path d="M1768 4403 c12 -2 30 -2 40 0 9 3 -1 5 -23 4 -22 0 -30 -2 -17 -4z"/>
<path d="M1868 4393 c12 -2 30 -2 40 0 9 3 -1 5 -23 4 -22 0 -30 -2 -17 -4z"/>
<path d="M1458 4243 c12 -2 30 -2 40 0 9 3 -1 5 -23 4 -22 0 -30 -2 -17 -4z"/>
<path d="M1553 4233 c9 -2 25 -2 35 0 9 3 1 5 -18 5 -19 0 -27 -2 -17 -5z"/>
<path d="M1653 4223 c9 -2 25 -2 35 0 9 3 1 5 -18 5 -19 0 -27 -2 -17 -5z"/>
<path d="M1748 4213 c12 -2 30 -2 40 0 9 3 -1 5 -23 4 -22 0 -30 -2 -17 -4z"/>
<path d="M1843 4203 c9 -2 25 -2 35 0 9 3 1 5 -18 5 -19 0 -27 -2 -17 -5z"/>
<path d="M1508 4193 c12 -2 30 -2 40 0 9 3 -1 5 -23 4 -22 0 -30 -2 -17 -4z"/>
<path d="M1938 4193 c12 -2 30 -2 40 0 9 3 -1 5 -23 4 -22 0 -30 -2 -17 -4z"/>
<path d="M1603 4183 c9 -2 25 -2 35 0 9 3 1 5 -18 5 -19 0 -27 -2 -17 -5z"/>
<path d="M1698 4173 c12 -2 30 -2 40 0 9 3 -1 5 -23 4 -22 0 -30 -2 -17 -4z"/>
<path d="M1798 4163 c12 -2 30 -2 40 0 9 3 -1 5 -23 4 -22 0 -30 -2 -17 -4z"/>
<path d="M1893 4153 c9 -2 25 -2 35 0 9 3 1 5 -18 5 -19 0 -27 -2 -17 -5z"/>
<path d="M2021 6134 c0 -11 3 -14 6 -6 3 7 2 16 -1 19 -3 4 -6 -2 -5 -13z"/>
<path d="M2032 6068 c-2 -34 1 -38 21 -37 15 1 17 3 5 6 -10 2 -18 17 -21 36
-4 31 -4 31 -5 -5z"/>
<path d="M2000 6020 c-9 -6 -10 -10 -3 -10 6 0 15 5 18 10 8 12 4 12 -15 0z"/>
<path d="M2098 6023 c7 -3 16 -2 19 1 4 3 -2 6 -13 5 -11 0 -14 -3 -6 -6z"/>
<path d="M2148 6013 c7 -3 16 -2 19 1 4 3 -2 6 -13 5 -11 0 -14 -3 -6 -6z"/>
<path d="M2198 6003 c7 -3 16 -2 19 1 4 3 -2 6 -13 5 -11 0 -14 -3 -6 -6z"/>
<path d="M2248 5993 c7 -3 16 -2 19 1 4 3 -2 6 -13 5 -11 0 -14 -3 -6 -6z"/>
<path d="M2058 5963 c6 -2 18 -2 25 0 6 3 1 5 -13 5 -14 0 -19 -2 -12 -5z"/>
<path d="M2108 5953 c6 -2 18 -2 25 0 6 3 1 5 -13 5 -14 0 -19 -2 -12 -5z"/>
<path d="M1064 5554 c-18 -14 -18 -15 4 -4 12 6 22 13 22 15 0 8 -5 6 -26 -11z"/>
<path d="M984 5504 c-18 -14 -18 -15 4 -4 12 6 22 13 22 15 0 8 -5 6 -26 -11z"/>
<path d="M943 5483 c-10 -3 -13 -46 -13 -164 0 -147 6 -180 26 -147 4 7 3 8
-4 4 -17 -10 -17 285 0 302 13 13 11 14 -9 5z"/>
<path d="M1003 5209 c-35 -22 -46 -37 -15 -20 22 13 58 40 52 41 -3 0 -20 -10
-37 -21z"/>
<path d="M1024 5164 c-18 -14 -18 -15 4 -4 12 6 22 13 22 15 0 8 -5 6 -26 -11z"/>
<path d="M948 5119 c-17 -9 -18 -38 -16 -397 l3 -387 2 384 c3 351 5 385 21
397 20 16 14 18 -10 3z"/>
<path d="M960 4360 c-8 -5 -10 -10 -5 -10 6 0 17 5 25 10 8 5 11 10 5 10 -5 0
-17 -5 -25 -10z"/>
<path d="M1010 4130 c-8 -5 -10 -10 -5 -10 6 0 17 5 25 10 8 5 11 10 5 10 -5
0 -17 -5 -25 -10z"/>
<path d="M793 5963 c9 -2 23 -2 30 0 6 3 -1 5 -18 5 -16 0 -22 -2 -12 -5z"/>
<path d="M693 5929 c-35 -22 -46 -37 -15 -20 22 13 58 40 52 41 -3 0 -20 -10
-37 -21z"/>
<path d="M828 4933 c-2 -329 -2 -608 0 -620 3 -18 9 -23 30 -22 24 2 24 2 4 6
l-22 4 2 615 c2 338 0 614 -4 614 -4 0 -9 -269 -10 -597z"/>
<path d="M838 4243 c6 -2 18 -2 25 0 6 3 1 5 -13 5 -14 0 -19 -2 -12 -5z"/>
<path d="M2073 5713 c9 -2 23 -2 30 0 6 3 -1 5 -18 5 -16 0 -22 -2 -12 -5z"/>
<path d="M2063 4065 c0 -27 2 -38 4 -22 2 15 2 37 0 50 -2 12 -4 0 -4 -28z"/>
<path d="M2063 3910 c0 -25 2 -35 4 -22 2 12 2 32 0 45 -2 12 -4 2 -4 -23z"/>
<path d="M2071 3855 c0 -5 8 -26 19 -45 11 -19 19 -30 19 -25 0 6 -8 26 -19
45 -11 19 -19 31 -19 25z"/>
<path d="M1090 4370 c-8 -5 -10 -10 -5 -10 6 0 17 5 25 10 8 5 11 10 5 10 -5
0 -17 -5 -25 -10z"/>
<path d="M1153 4233 c9 -2 23 -2 30 0 6 3 -1 5 -18 5 -16 0 -22 -2 -12 -5z"/>
<path d="M1138 4193 c7 -3 16 -2 19 1 4 3 -2 6 -13 5 -11 0 -14 -3 -6 -6z"/>
<path d="M1277 3343 c-10 -9 -9 -51 2 -57 4 -3 6 6 3 20 -3 16 1 30 9 35 8 5
9 9 3 9 -6 0 -14 -3 -17 -7z"/>
<path d="M1311 3280 c-13 -11 -19 -20 -14 -20 6 0 18 9 28 20 23 25 17 25 -14
0z"/>
<path d="M995 3122 c-5 -4 -17 -16 -25 -27 -11 -15 -7 -14 13 4 24 22 32 31
25 31 -2 0 -7 -4 -13 -8z"/>
<path d="M1035 3090 c10 -11 20 -20 23 -20 3 0 -3 9 -13 20 -10 11 -20 20 -23
20 -3 0 3 -9 13 -20z"/>
<path d="M910 3010 c-12 -16 -19 -30 -16 -30 2 0 14 14 26 30 12 17 19 30 16
30 -2 0 -14 -13 -26 -30z"/>
<path d="M868 2963 c7 -3 16 -2 19 1 4 3 -2 6 -13 5 -11 0 -14 -3 -6 -6z"/>
<path d="M830 2949 c0 -5 5 -7 10 -4 6 3 10 8 10 11 0 2 -4 4 -10 4 -5 0 -10
-5 -10 -11z"/>
<path d="M2123 3295 c-3 -9 -3 -18 -1 -21 3 -3 8 4 11 16 6 23 -1 27 -10 5z"/>
<path d="M2177 3257 l-17 -32 20 24 c17 20 26 41 18 41 -2 0 -11 -15 -21 -33z"/>
<path d="M2136 3247 c3 -10 9 -15 12 -12 3 3 0 11 -7 18 -10 9 -11 8 -5 -6z"/>
<path d="M1783 3038 c-43 -57 -66 -91 -58 -86 12 7 78 98 72 98 -3 0 -9 -6
-14 -12z"/>
<path d="M1685 2928 c-11 -6 -21 -12 -23 -13 -1 -1 2 -13 8 -26 10 -23 10 -23
6 -1 -3 16 3 26 22 37 15 8 23 14 17 14 -5 0 -19 -5 -30 -11z"/>
<path d="M5145 3810 c-372 -55 -652 -286 -747 -617 -20 -68 -23 -100 -23 -253
0 -138 4 -190 19 -245 71 -268 238 -463 531 -620 58 -31 223 -109 368 -174
347 -155 435 -214 484 -328 25 -60 23 -177 -5 -235 -77 -156 -297 -237 -541
-197 -195 31 -343 127 -467 302 l-61 86 -174 -101 c-96 -55 -216 -125 -267
-155 l-93 -54 32 -57 c185 -332 533 -550 963 -603 120 -14 399 -6 501 15 466
96 745 378 785 791 21 222 -22 434 -121 602 -44 75 -195 225 -289 290 -102 69
-292 168 -485 251 -370 161 -467 224 -514 332 -25 57 -30 151 -12 216 13 50
80 128 130 153 133 67 319 46 441 -50 27 -21 73 -72 101 -112 28 -39 56 -71
61 -69 11 3 476 299 492 313 5 5 -11 39 -39 81 -205 311 -481 450 -885 447
-74 -1 -157 -5 -185 -9z"/>
<path d="M3157 3783 c-4 -3 -7 -531 -7 -1172 0 -994 -2 -1175 -15 -1229 -41
-173 -135 -243 -327 -243 -168 -1 -269 66 -383 254 -26 43 -50 77 -54 75 -4
-2 -125 -74 -269 -162 l-262 -158 31 -57 c78 -138 159 -237 264 -320 201 -160
431 -228 745 -218 202 6 316 32 465 106 234 116 363 291 438 591 21 84 21 103
24 1313 l4 1227 -324 0 c-178 0 -327 -3 -330 -7z"/>
<path d="M2155 2785 c0 -209 1 -296 2 -193 2 103 2 274 0 380 -1 106 -2 22 -2
-187z"/>
</g>
</svg>
