<?xml version="1.0" encoding="UTF-8"?>
<svg width="284px" height="283px" viewBox="0 0 284 283" version="1.1" xmlns="http://www.w3.org/2000/svg" xmlns:xlink="http://www.w3.org/1999/xlink">
    <!-- Generator: Sketch 53.2 (72643) - https://sketchapp.com -->
    <title>Artboard</title>
    <desc>Created with Sketch.</desc>
    <defs>
        <rect id="path-3" x="0" y="0" width="841.8896" height="595.2803"></rect>
        <path d="M375.3135,379.4131 C379.4927,386.8242 383.2954,393.0928 392.4146,393.0928 C401.1568,393.0928 406.6675,389.6739 406.6675,376.3731 L406.6675,285.92 L433.2705,285.92 L433.2705,376.7511 C433.2705,404.3058 417.1196,416.8478 393.5557,416.8478 C372.2734,416.8477 359.9204,405.8262 353.6494,392.5244 L375.3135,379.4131 Z" id="path-5"></path>
        <filter x="-8.8%" y="-3.8%" width="117.6%" height="110.7%" filterUnits="objectBoundingBox" id="filter-6">
            <feOffset dx="0" dy="2" in="SourceAlpha" result="shadowOffsetOuter1"></feOffset>
            <feGaussianBlur stdDeviation="2" in="shadowOffsetOuter1" result="shadowBlurOuter1"></feGaussianBlur>
            <feColorMatrix values="0 0 0 0 0   0 0 0 0 0   0 0 0 0 0  0 0 0 1 0" type="matrix" in="shadowBlurOuter1"></feColorMatrix>
        </filter>
        <rect id="path-7" x="0" y="0" width="841.8896" height="595.2803"></rect>
        <path d="M469.375,377.1318 C475.0781,386.4443 482.4883,393.2851 495.6006,393.2851 C506.6231,393.2851 513.6524,387.7734 513.6524,380.1728 C513.6524,371.0507 506.4317,367.8203 494.2706,362.5009 L487.6202,359.6493 C468.4268,351.4784 455.6944,341.2177 455.6944,319.5546 C455.6944,299.6015 470.8965,284.3988 494.6505,284.3988 C511.5636,284.3988 523.7247,290.2909 532.465,305.6825 L511.7511,318.9843 C507.1906,310.8144 502.2511,307.5839 494.6505,307.5839 C486.8595,307.5839 481.9181,312.5243 481.9181,318.9843 C481.9181,326.9657 486.8595,330.1972 498.2599,335.1376 L504.9103,337.9882 C527.5236,347.6786 540.256,357.5595 540.256,379.7919 C540.256,403.7362 521.4435,416.8476 496.1701,416.8476 C471.4668,416.8477 455.5039,405.0674 447.7148,389.6738 L469.375,377.1318 Z" id="path-9"></path>
        <filter x="-7.6%" y="-3.8%" width="115.1%" height="110.6%" filterUnits="objectBoundingBox" id="filter-10">
            <feOffset dx="0" dy="2" in="SourceAlpha" result="shadowOffsetOuter1"></feOffset>
            <feGaussianBlur stdDeviation="2" in="shadowOffsetOuter1" result="shadowBlurOuter1"></feGaussianBlur>
            <feColorMatrix values="0 0 0 0 0   0 0 0 0 0   0 0 0 0 0  0 0 0 1 0" type="matrix" in="shadowBlurOuter1"></feColorMatrix>
        </filter>
        <filter x="-14.8%" y="-8.3%" width="129.6%" height="116.7%" filterUnits="objectBoundingBox" id="filter-11">
            <feOffset dx="0" dy="2" in="SourceAlpha" result="shadowOffsetOuter1"></feOffset>
            <feGaussianBlur stdDeviation="2" in="shadowOffsetOuter1" result="shadowBlurOuter1"></feGaussianBlur>
            <feColorMatrix values="0 0 0 0 0.364705882   0 0 0 0 0.184313725   0 0 0 0 0.321568627  0 0 0 1 0" type="matrix" in="shadowBlurOuter1" result="shadowMatrixOuter1"></feColorMatrix>
            <feMerge>
                <feMergeNode in="shadowMatrixOuter1"></feMergeNode>
                <feMergeNode in="SourceGraphic"></feMergeNode>
            </feMerge>
        </filter>
    </defs>
    <g id="Artboard" stroke="none" stroke-width="1" fill="none" fill-rule="evenodd">
        <g id="LimaJS-logo" transform="translate(-279.000000, -156.000000)">
            <g id="Rectangle-path" fill-rule="nonzero">
                <use fill="#D46D56" xlink:href="#path-2"></use>
                <use fill="url(#linearGradient-1)" xlink:href="#path-2"></use>
            </g>
            <g id="Group">
                <g id="J">
                    <mask id="mask-4" fill="white">
                        <use xlink:href="#path-3"></use>
                    </mask>
                    <g id="SVGID_1_"></g>
                    <g id="Shape" fill-rule="nonzero" mask="url(#mask-4)">
                        <use fill="black" fill-opacity="1" filter="url(#filter-6)" xlink:href="#path-5"></use>
                        <use fill="#FFFFFF" xlink:href="#path-5"></use>
                    </g>
                </g>
                <g id="S">
                    <mask id="mask-8" fill="white">
                        <use xlink:href="#path-7"></use>
                    </mask>
                    <g id="SVGID_1_"></g>
                    <g id="Shape" fill-rule="nonzero" mask="url(#mask-8)">
                        <use fill="black" fill-opacity="1" filter="url(#filter-10)" xlink:href="#path-9"></use>
                        <use fill="#FFFFFF" xlink:href="#path-9"></use>
                    </g>
                </g>
                <g id="retablo" transform="translate(291.000000, 163.000000)" fill-rule="nonzero" stroke="#FFFFFF" stroke-width="0.5">
                    <path d="M24.7407,175.4346 L25.0693,175.4346 L25.0693,160.5323 C24.9604,160.5206 24.8505,160.5098 24.7407,160.4981 L24.7407,175.4346 Z" id="Shape"></path>
                    <path d="M34.3818,151.7939 L34.3818,164.4785 L34.7109,164.4785 L34.7109,151.8135 C34.6308,151.8086 34.5615,151.8184 34.4746,151.8037 C34.4409,151.7988 34.4146,151.7988 34.3818,151.7939" id="Shape"></path>
                    <path d="M37.5674,176.4346 L37.896,176.4346 L37.896,148.4112 C37.7651,148.7061 37.6572,149.0147 37.5674,149.3233 L37.5674,176.4346 Z" id="Shape"></path>
                    <path d="M69.0723,164.4785 L69.4014,164.4785 L69.4014,152.0674 C69.294,152.1406 69.1861,152.2119 69.0723,152.2764 L69.0723,164.4785 Z" id="Shape"></path>
                    <path d="M55.4165,175.4346 L55.7456,175.4346 L55.7456,160.7598 C55.6367,160.7305 55.5268,160.7032 55.4165,160.6709 L55.4165,175.4346 Z" id="Shape"></path>
                    <path d="M75.1279,178.7217 L75.457,178.7217 L75.457,146.8291 C75.351,146.8955 75.2426,146.958 75.1279,147.0156 L75.1279,178.7217 Z" id="Shape"></path>
                    <polygon id="Shape" points="10.1333 34.584 10.2661 34.4229 0.5103 34.4229 0.5103 34.752 10.2148 34.752"></polygon>
                    <polygon id="Shape" points="79.4292 34.752 98.0771 34.752 98.0771 34.4229 80.145 34.4229"></polygon>
                    <polygon id="Shape" points="83.1875 18.9268 75.4575 18.9268 75.4575 17.7646 75.1274 17.7646 75.1274 18.9268 69.4014 18.9268 69.4014 6.8066 69.0728 6.8066 69.0728 18.9268 55.7466 18.9268 55.7466 5.7119 55.4165 5.7119 55.4165 18.9268 37.8965 18.9268 37.8965 5.7119 37.5674 5.7119 37.5674 18.9268 34.7104 18.9268 34.7104 0.2339 34.3818 0.2339 34.3818 18.9268 25.0693 18.9268 25.0693 6.8066 24.7407 6.8066 24.7407 18.9268 20.7695 18.9268 20.7695 11.1899 20.4404 11.1899 20.4404 18.9268 7.5337 18.9268 7.5337 19.2559 20.4404 19.2559 20.4404 28.6807 20.7695 28.6958 20.7695 19.2559 24.7407 19.2559 24.7407 24.0566 25.0693 23.8179 25.0693 19.2559 34.3818 19.2559 34.3818 20.4751 34.7104 20.519 34.7104 19.2559 36.9937 19.2559 37.2124 19.0898 37.5674 19.1709 37.8965 19.2461 37.9395 19.2559 55.4165 19.2559 55.4165 24.2241 55.7466 24.2959 55.7466 19.2559 69.0728 19.2559 69.0728 26.8008 69.4014 26.6338 69.4014 19.2559 75.1274 19.2559 75.1274 27.8066 75.4575 27.8857 75.4575 19.2559 83.1875 19.2559"></polygon>
                    <polygon id="Rectangle-path" points="10.085 96.1123 20.4151 96.1123 20.4151 96.4414 10.085 96.4414"></polygon>
                    <polygon id="Rectangle-path" points="75.3169 96.1123 101.0781 96.1123 101.0781 96.4414 75.3169 96.4414"></polygon>
                    <path d="M9.2329,124.2144 L19.4058,124.2144 C19.4737,124.0406 19.4947,123.9253 19.4947,123.9253 L19.4947,123.8857 L9.2329,123.8857 L9.233,124.2144 L9.2329,124.2144 Z" id="Shape"></path>
                    <path d="M91.0322,123.8853 L79.9731,123.8853 C80.0092,123.9952 80.0341,124.1041 80.0654,124.2139 L91.0322,124.2139 L91.0322,123.8853 Z" id="Shape"></path>
                    <polygon id="Shape" points="13.2339 136.9521 0.4668 136.9521 0.4668 137.2812 13.3809 137.2812 13.3091 137.1201"></polygon>
                    <path d="M80.9756,137.2822 L96.5103,137.2822 L96.5103,136.9531 L81.0352,136.9531 C81.0352,137.0039 81.0254,137.126 80.9756,137.2822" id="Shape"></path>
                    <g id="Clipped" filter="url(#filter-11)" transform="translate(9.000000, 18.000000)">
                        <path d="M32.4248,122.4521 L32.4077,122.4521 C32.2031,122.4238 32.0107,122.4082 31.8369,122.4082 C30.935,122.4082 30.6157,122.8135 30.5068,123.1553 C30.184,124.1612 31.3007,125.9199 31.6479,126.168 C31.7031,126.208 31.7661,126.2276 31.8359,126.2276 C32.4741,126.2276 33.6621,124.3282 33.9687,123.5196 C34.0727,123.2413 34.0019,123.045 33.9218,122.9307 C33.6201,122.4941 32.7207,122.4521 32.4248,122.4521 M33.7119,123.4238 C33.3559,124.3623 32.2309,125.9531 31.8359,125.9531 L31.8056,125.9463 C31.5659,125.7734 30.4799,124.1348 30.768,123.2383 C30.8876,122.8643 31.2377,122.6826 31.8368,122.6826 C31.9979,122.6826 32.1766,122.6963 32.37,122.7246 L32.41,122.7256 C32.7957,122.7256 33.4998,122.8018 33.6966,123.086 C33.7588,123.1768 33.7637,123.2861 33.7119,123.4238 M36.3081,76.5254 L44.2393,77.3193 L44.2393,49.4184 L36.3081,48.2944 L36.3081,76.5254 Z M36.8003,48.8613 L43.7481,49.8462 L43.7481,76.7744 L36.8003,76.0796 L36.8003,48.8613 Z" id="Shape"></path>
                        <path d="M71.4712,108.8613 C71.8086,107.2324 71.3745,105.4682 70.1802,103.6123 C69.1133,101.9512 69.4033,99.2764 69.4063,99.2495 L69.4224,99.1123 L69.3203,99.0176 C68.6665,98.4155 68.2842,95.9014 69.0322,94.2876 C69.6943,92.8584 69.3261,91.7734 69.1206,91.3462 L70.1846,90.2256 L70.2974,90.1065 L70.3946,90.0035 L70.0826,89.8326 C68.7725,89.1173 68.7896,87.4205 69.2022,86.1847 C69.5943,85.0065 69.1055,84.1867 68.7115,83.8375 L68.7115,81.8634 L66.5665,79.7394 L66.5665,70.2145 L67.1183,69.2667 L66.5665,68.4024 L66.5665,34.8414 C67.0616,34.0846 67.0304,33.4854 66.9586,33.1793 C67.5733,32.5587 67.2565,31.0494 67.0934,30.4356 C68.2916,29.5665 68.1393,28.2535 67.8307,27.5225 L70.0275,25.2544 L67.8337,24.8936 L67.8337,23.5567 L67.7365,23.4747 C66.8434,22.7193 67.0466,20.9146 67.1335,20.3663 C68.3566,19.9483 68.4924,18.4776 68.4997,17.9454 L72.4748,16.1114 L72.4748,14.3204 L76.2165,11.9532 L60.6447,8.2022 L59.5016,8.7833 L44.6295,5.5567 L45.0333,5.3365 L43.8145,4.4063 L28.2764,0.8243 L28.1524,0.7965 L26.1646,2.3014 C25.4424,2.2047 21.4493,1.6666 21.4493,1.6666 L21.3414,1.6534 L13.1685,7.5943 L11.8135,9.0904 L13.1275,9.2774 L13.0616,9.5386 L14.2833,9.6773 L14.9093,10.1036 L14.2135,10.5396 L8.8126,10.2852 L2.1773,14.9126 L0.7164,16.6636 L2.3976,17.6284 L3.6666,18.8774 L4.4815,20.4145 L6.9693,20.4145 L8.0386,20.9204 C7.8443,21.2344 7.6114,21.7622 7.7935,22.2905 C7.8726,22.5205 8.0552,22.7573 8.2886,23.0595 C8.8233,23.7514 9.5532,24.6952 9.3545,26.0575 L9.2183,26.3153 L9.1866,27.7914 L6.8546,29.5961 L7.7023,30.0771 L8.6017,31.2075 C8.4684,31.5303 8.3034,32.2392 8.8834,33.1362 C9.5035,34.0932 9.5333,34.8095 9.5377,34.8086 C9.5284,34.8623 9.4034,35.7715 9.9864,36.4585 L9.9864,37.2402 C9.9815,37.3403 9.9532,38.1772 10.4566,38.4463 C10.6085,38.6436 11.3316,39.7305 11.3316,42.5122 L11.3316,56.0635 L10.7003,56.5362 L10.7003,57.8624 L11.3316,57.4205 L11.3316,57.7643 C11.1695,57.8595 10.9127,58.0197 10.7794,58.1515 C10.7066,58.2257 10.4684,58.4957 10.5084,58.8517 C10.5265,59.0133 10.6105,59.2467 10.9112,59.4386 L11.0015,59.4747 C11.0025,59.4747 11.0796,59.4986 11.0796,59.6476 L11.0796,60.2794 C11.0322,60.3033 10.9834,60.3365 10.9346,60.3805 C10.7725,60.5275 10.6753,60.7575 10.6465,61.0636 C10.4395,61.1515 10.1992,61.3253 10.0864,61.6227 C9.9502,61.9874 9.8413,62.8356 10.3584,63.5236 C10.3452,64.0265 10.4941,64.8175 11.1216,65.0397 L11.1216,71.9318 L10.3853,72.3254 L10.3853,74.4338 L11.1426,73.9924 L11.1426,82.6076 L10.1802,83.2385 L10.1802,83.7624 L8.5874,85.0876 L8.5874,85.9138 L7.7046,86.4485 L7.7046,87.4378 L8.8916,87.7938 C8.6323,88.3128 8.3433,89.4027 9.3125,90.8807 L9.3125,93.307 L10.1982,94.6796 C10.0625,95.0946 9.7456,96.371 10.3544,97.9457 L10.3544,99.768 C9.9154,100.0829 8.5522,101.2177 8.8813,102.9506 C8.9873,103.33 9.4003,104.0136 10.2285,104.141 L10.2314,105.8856 C10.2294,105.8959 10.0502,106.9115 8.4863,107.7899 C6.8935,108.6839 6.7666,109.246 6.6181,109.8959 C6.5971,109.9887 6.5751,110.0839 6.5473,110.183 C6.4965,110.3676 6.2641,110.5336 5.9955,110.7269 C5.4701,111.1029 4.7601,111.6107 4.6933,112.766 L2.6581,113.641 L2.6581,116.0189 L4.2401,119.6234 L4.4281,119.6136 C5.494,119.556 6.7684,119.7025 6.8973,119.9974 C7.076,120.4056 8.6561,123.8724 10.911,124.139 L10.911,139.9036 L10.9335,140.012 C10.9721,140.1009 11.8964,142.2161 13.7084,142.4866 L14.1161,142.5501 C15.9574,142.8343 18.4374,143.221 19.0482,142.1448 C19.2723,142.1546 19.5375,142.1077 19.7684,141.9016 C20.2904,141.4358 20.3714,140.4153 20.014,138.7834 C20.5711,137.9904 21.8734,136.173 22.2171,135.8586 C22.3231,135.7629 22.4451,135.6838 22.5652,135.6057 C22.947,135.3537 23.4202,135.0412 23.407,134.2629 C23.5921,134.1379 24.1599,133.8742 25.4392,134.0764 C27.2839,134.3733 27.9109,132.9104 28.2873,132.0383 C28.3342,131.9299 28.3781,131.8264 28.4201,131.7365 C28.5231,131.5197 28.6081,131.2092 28.7062,130.8508 C28.9782,129.8528 29.3502,128.4865 30.317,128.4865 C31.3888,128.4865 33.0528,127.4162 34.0489,125.6144 L43.5631,125.9123 L43.5631,141.5939 L45.172,142.4845 C46.6749,143.1906 48.277,143.3761 49.5509,143.3761 C50.9362,143.3761 51.9342,143.1554 51.9879,143.1417 C53.2159,143.0753 53.2789,141.7218 53.3351,140.5255 C53.3468,140.2638 53.36,139.9972 53.382,139.7374 C53.4543,138.9083 54.6291,137.8741 55.487,137.1192 C56.1081,136.5723 56.4362,136.2745 56.5231,136.0167 C56.611,135.7491 57.38,135.3761 57.9782,135.1935 C61.0583,135.0568 62.841,132.09 62.9001,131.089 C62.9382,130.423 63.5881,129.9572 63.7839,129.8322 C65.3322,129.8146 66.5901,129.3127 67.5212,128.3351 C69.1931,126.5802 69.2893,123.8654 69.2819,123.1564 C69.988,122.7033 70.0671,121.88 69.9782,121.2951 L70.7092,121.2951 L70.7092,120.6174 C71.9782,120.2903 72.2409,119.4768 72.2932,119.0988 C73.1233,118.6613 73.2849,117.8176 73.3132,117.4093 C74.4773,117.0724 75.1789,116.1705 75.405,115.8336 L77.9831,116.0406 L77.9831,114.5675 L78.7712,114.5675 L78.7712,113.5167 L79.4133,113.5167 L79.4133,111.8526 C80.1179,111.1846 80.1872,110.1304 80.1902,110.0836 L80.2053,109.8233 L71.4712,108.8613 Z M68.5361,94.0576 C67.7505,95.7554 68.0551,98.4053 68.8506,99.3183 C68.8003,99.9033 68.6763,102.2812 69.7212,103.9072 C70.8535,105.6694 71.2495,107.3213 70.9111,108.8271 L64.7505,108.1533 C65.0166,106.1904 64.9312,105.1875 63.6533,103.1816 C62.3393,101.1191 62.9521,99.0903 62.9585,99.0703 L62.9795,99.0024 L62.9375,98.9462 C62.3945,98.2372 62.4775,95.5273 62.8955,93.4423 C63.1553,92.1405 62.6284,91.3861 62.2334,91.0165 L68.5361,91.4232 L68.5561,91.4544 C68.5854,91.4976 69.2441,92.5273 68.5361,94.0576 L68.5361,94.0576 Z M61.6465,81.8755 L61.6465,83.5552 L60.7564,84.0176 L60.7564,82.3574 L61.6465,81.8755 Z M60.7563,82.0454 L60.7563,33.1274 L61.6464,32.7524 L61.6464,81.5664 L61.6435,81.5664 L60.7563,82.0454 Z M61.6465,83.8643 L61.6465,89.4585 L60.7564,89.8242 L60.7564,84.3271 L61.6465,83.8643 Z M61.6562,89.7505 L61.6562,90.7534 L60.7563,91.0703 L60.7563,90.1191 L61.6562,89.7505 Z M61.7803,90.9995 C62.0113,91.1382 62.9424,91.8076 62.6255,93.3882 C62.2656,95.1934 62.0513,98.1035 62.6782,99.0552 C62.5752,99.4375 62.1572,101.3433 63.4223,103.3296 C64.6601,105.2705 64.7402,106.1934 64.4785,108.1235 L61.9062,107.8423 L60.7563,108.0064 L60.7563,91.3614 L61.7803,90.9995 Z M68.5522,91.1504 L61.9292,90.7212 L61.9292,89.6934 L69.4736,90.1792 L68.5522,91.1504 Z M68.6826,86.0112 C68.2685,87.2534 68.2344,88.8984 69.2666,89.8916 L61.9292,89.4185 L61.9292,89.3423 L61.9204,89.3462 L61.9204,83.7832 L68.1645,84.0942 L68.1645,84.1142 L68.2822,84.1953 C68.2915,84.2012 69.0962,84.7715 68.6826,86.0112 L68.6826,86.0112 Z M68.1646,83.8184 L61.9205,83.5083 L61.9205,81.8506 L68.1646,82.1035 L68.1646,83.8184 Z M67.8872,81.8184 L61.9204,81.5762 L61.9204,33.7715 C61.9492,35.4336 62.1553,38.3472 63.2021,39.4365 C63.4804,39.7265 63.8051,39.8735 64.1655,39.8735 C64.6333,39.8735 65.0385,39.6963 65.3691,39.3462 C65.6552,39.0464 65.8642,38.6406 66.0185,38.1943 L66.0185,68.5625 L66.4765,69.2793 L66.0185,70.0664 L66.0185,79.9683 L67.8872,81.8184 Z M61.9204,32.8066 L61.9204,32.6992 L61.9224,32.6992 C61.9214,32.7295 61.9214,32.7676 61.9204,32.8066 L61.9204,32.8066 Z M62.1963,32.7295 L66.3892,33.1924 L66.3955,33.2046 C66.4062,33.2266 66.6475,33.7612 66.0674,34.6025 L66.0186,34.6723 L66.0186,37.0331 C65.8873,37.8383 65.6392,38.6654 65.1705,39.1581 C64.8883,39.4555 64.5606,39.5995 64.1656,39.5995 C63.8785,39.5995 63.6275,39.4843 63.3995,39.2465 C62.1392,37.9365 62.1772,33.5576 62.1963,32.7295 L62.1963,32.7295 Z M66.6313,30.0874 L66.4555,30.1973 L66.5156,30.3975 C66.7715,31.2622 66.9385,32.5943 66.5034,32.8443 L66.3843,32.9166 L61.7984,32.4103 L61.7623,32.4064 L60.7564,32.8297 L60.7564,27.5943 C60.7564,27.5914 60.7554,27.5904 60.7554,27.5875 L61.8184,26.8233 L67.2476,27.5713 L67.2603,27.5962 C67.2944,27.6602 68.0806,29.1816 66.6313,30.0874 L66.6313,30.0874 Z M67.7202,25.4282 L68.9072,25.6245 L67.2842,27.2993 L61.7486,26.5361 L60.6973,27.2915 C60.5635,26.7505 60.1255,26.4136 59.8843,26.2764 L59.8843,25.5205 L61.6363,24.4111 L67.2862,25.3564 L67.2862,25.3574 L67.7125,25.4272 L67.7202,25.4282 Z M36.1611,119.3496 C36.1406,119.2949 36.1015,119.2324 36.0302,119.1816 L36.0302,118.8916 L37.0502,118.8916 L37.0502,118.3525 C37.6122,118.2314 38.3822,117.8134 38.4101,116.8403 C38.6752,116.7465 39.1352,116.5254 39.3203,116.0874 C39.4414,115.8022 39.4263,115.4834 39.2754,115.1392 C39.6914,114.9966 40.4312,114.6626 40.8872,114.0093 L58.5225,115.1475 L59.2832,115.0542 L43.8052,120.1494 L36.1563,119.6621 C36.1885,119.5527 36.2012,119.4463 36.1611,119.3496 L36.1611,119.3496 Z M41.1372,113.5322 C41.1811,113.4155 41.2212,113.2964 41.2456,113.1655 L44.0835,113.3242 L44.0835,111.1123 L44.8823,111.1753 L44.8823,110.3315 L45.7656,110.3945 L45.7656,109.2011 C45.9814,109.0302 46.4902,108.5903 46.8945,107.9882 L58.2466,108.7983 L58.2466,114.6391 L41.1372,113.5322 Z M58.5112,108.3286 L47.1523,107.5122 C47.1943,107.4233 47.2504,107.3452 47.2851,107.2524 L47.4023,106.9404 L38.7163,106.4214 C38.7632,106.2822 38.8052,106.1406 38.8564,106.0064 C39.2602,104.9346 39.6782,103.8252 37.7993,101.9454 C35.7583,99.9054 36.7456,96.7725 36.7554,96.7403 L36.7945,96.6173 L36.7164,96.5133 C36.7066,96.5006 35.7345,95.2135 36.2032,93.9425 C36.3053,93.6696 36.4034,93.4274 36.4957,93.2067 C36.8766,92.2795 37.1505,91.6105 36.8556,90.2404 C36.7257,89.6325 36.5304,88.9186 36.2887,88.5646 L36.6437,88.0578 L60.2643,90.5187 L60.2643,108.0773 L58.5112,108.3286 Z M20.3184,106.0293 C19.9976,105.4463 19.9292,104.7085 20.1353,104.0542 C20.5074,102.8706 21.7393,102.0166 21.7945,101.9722 C23.4112,100.2334 23.6304,97.5952 23.6553,97.1743 C23.8023,96.8594 24.4195,95.2505 23.2393,92.5342 C22.6416,91.1533 22.7354,90.3716 22.8892,89.9453 C23.0772,89.4253 23.7413,89.1191 23.7413,89.1191 L25.5763,88.4033 L28.1373,88.1904 L28.1373,105.7885 L24.9083,105.5951 L24.8575,105.5922 L21.2403,106.8813 L21.2564,106.8232 C20.8784,106.7236 20.5464,106.4424 20.3184,106.0293 L20.3184,106.0293 Z M20.6235,13.2266 C20.6162,13.4156 20.6235,13.6304 20.6464,13.8555 L15.9462,16.9805 C15.5961,15.1914 13.911,12.9136 13.4325,12.2984 L13.4921,12.2222 L15.8114,10.7383 C16.119,11.0293 16.2894,11.3345 16.3793,11.5996 C16.4433,11.9463 16.3852,12.2183 16.3803,12.2383 L16.3183,12.4976 L20.6235,13.2266 Z M35.7754,17.4556 C34.9253,16.8814 35.1514,15.3775 35.2456,14.9082 C36.6382,14.5322 37.0005,13.3442 36.9995,12.4634 L59.9912,17.3692 L59.9912,24.8624 L59.4546,25.2135 L36.8916,20.9073 L38.4873,19.5743 L35.8833,19.0235 L35.8833,17.5294 L35.7754,17.4556 Z M35.3916,17.7842 L35.3916,19.0772 L29.4814,17.9356 L29.4326,17.9263 L28.8506,18.2603 L28.8506,11.5293 L29.7822,10.7163 L36.4756,12.0742 C36.5156,12.3242 36.7354,14.0884 34.9863,14.4643 L34.8374,14.4975 L34.7993,14.6435 C34.7744,14.7354 34.2354,16.8594 35.3916,17.7842 L35.3916,17.7842 Z M36.9834,12.1802 C36.9814,12.1612 36.9824,12.1372 36.9795,12.1182 L38.8774,11.1143 L59.0771,15.4644 C59.0771,15.4644 59.8403,16.1534 59.9643,17.0835 L36.9834,12.1802 Z M36.5195,11.8052 L29.7695,10.4356 L29.7031,10.4214 L28.7202,11.2803 L27.3706,9.0723 L29.5112,7.3785 L40.4365,9.7315 L36.5195,11.8052 Z M27.6006,19.9233 C27.6924,20.1352 27.8706,20.5986 27.9966,21.0463 L24.2505,20.8241 L24.2031,20.8221 L21.3052,22.7982 C20.9663,22.3363 20.4395,21.9281 20.0972,21.6932 L24.1314,18.8831 L27.5806,19.1253 L27.5806,19.825 L27.6006,19.9233 Z M27.6045,18.8525 L24.0562,18.6035 L22.1382,19.8813 L22.1382,18.4184 C22.9663,17.3383 22.6206,16.1953 22.6055,16.1455 L22.5762,16.0566 L22.4956,16.0083 C21.2222,15.2524 21.0483,13.9775 21.1274,13.0405 L21.1464,12.8154 C21.1464,12.8154 21.1894,12.4975 21.3534,12.2363 L23.7274,10.7094 L28.3583,11.6523 L28.3583,18.3916 L27.6045,18.8525 Z M28.1772,11.3364 L23.7924,10.4433 L22.7382,8.3915 L26.9023,9.2514 L28.1772,11.3364 Z M23.5225,10.5166 L20.7925,12.2563 C20.7344,12.4316 20.6973,12.5932 20.6724,12.7343 L17.0996,12.1293 L22.4365,8.4003 L23.5225,10.5166 Z M20.6904,14.1562 C20.8261,14.9223 21.2075,15.7773 22.1552,16.3764 C22.2094,16.6332 22.3095,17.4335 21.7021,18.1762 L21.6464,18.2455 L21.6464,20.0121 L19.2045,21.7152 L19.5292,21.91 C20.1801,22.305 21.1942,23.1273 21.1371,23.658 C21.1361,23.6634 21.1361,23.6692 21.1351,23.6741 L16.0023,26.8323 L16.0023,17.2722 L20.6904,14.1562 Z M21.0854,24.0273 C21.0175,24.8252 21.2182,26.0004 22.3374,26.5761 C22.2705,27.0541 22.1875,28.2895 22.9414,29.1484 C22.9473,29.1582 23.5952,30.1704 23.5952,31.1743 L23.5942,31.3906 C23.5932,31.7011 23.5922,32.1054 23.6113,32.5361 L16.8955,36.6552 L16.8306,36.6952 L16.8306,49.5712 L24.0533,45.0473 L24.0533,47.0234 L16.8956,51.4326 L16.8307,51.4722 L16.8307,82.5332 L20.7296,80.8144 L21.7735,82.0512 C21.4923,83.9804 21.9503,84.7675 22.3194,85.4023 C22.4815,85.6816 22.6216,85.9223 22.6744,86.2246 C22.7877,86.8794 22.2974,87.5425 21.9815,87.8945 L16.0035,90.5986 L16.0025,27.1543 L21.0854,24.0273 Z M17.8794,52.9844 L17.8794,80.3662 L22.9805,78.0273 L20.9795,80.4043 L17.1045,82.1143 L17.1045,51.6246 L24.0532,47.3453 L24.0532,49.1866 L17.8794,52.9844 Z M24.0532,49.7656 L24.0532,65.2173 L22.9013,66.7466 L24.2265,67.7984 L24.2265,76.5464 L23.7221,77.1455 L18.3715,79.5986 L18.3715,53.2602 L24.0532,49.7656 Z M21.7222,80.2861 L24.7183,76.7265 L24.7183,67.5615 L23.5845,66.6582 L24.5454,65.3813 L24.5454,35.0576 C24.6553,35.1601 24.7754,35.2544 24.9155,35.3252 L24.9985,35.3682 L25.0683,35.3067 C25.1191,35.2613 25.2695,35.0406 25.4081,34.0103 L25.4081,78.6382 L21.7222,80.2861 Z M25.4082,78.9375 L25.4082,80.4023 L22.1782,81.7675 L21.3296,80.7621 L25.4082,78.9375 Z M18.0386,38.0972 L17.9234,38.1704 L17.9234,47.2012 L24.0533,43.3242 L24.0533,44.7256 L17.1046,49.0772 L17.1046,36.8497 L23.6295,32.8453 C23.6666,33.4024 23.7413,33.9796 23.9005,34.4522 L18.0386,38.0972 Z M24.0532,34.9385 L24.0532,42.7412 L18.4155,46.3076 L18.4155,38.4433 L24.0532,34.9385 Z M24.9253,35.0166 C24.7183,34.8843 24.5645,34.6904 24.4365,34.4692 C24.0815,33.6772 24.0835,32.2075 24.0874,31.3925 L24.0874,31.1742 C24.0874,30.3783 23.7524,29.6132 23.5273,29.1893 L25.4072,27.8602 C25.3955,33.2964 25.0444,34.6992 24.9253,35.0166 L24.9253,35.0166 Z M22.8354,89.1665 C22.6982,89.2935 22.5512,89.4785 22.4414,89.7383 C22.4102,89.8106 22.4033,89.8975 22.3804,89.9756 L16.0034,92.7793 L16.0034,90.9004 L21.5176,88.4053 L22.8354,89.1665 Z M22.2954,90.3125 C22.2134,90.9712 22.3755,91.7793 22.7886,92.7314 C23.9766,95.4682 23.2032,96.9794 23.1963,96.9921 L23.1665,97.1015 C23.1655,97.1293 23.0342,99.9155 21.4746,101.6015 C21.4175,101.6391 20.0903,102.5576 19.6655,103.9062 C19.4194,104.6865 19.5024,105.5683 19.8872,106.2685 C20.0854,106.6264 20.3535,106.9013 20.6601,107.0883 L16.0034,108.7494 L16.0034,93.0785 L22.2954,90.3125 Z M25.5332,88.1313 L23.4385,88.9443 L22.3262,88.3022 L25.5796,86.9262 L28.1372,86.6791 L28.1372,87.9154 L25.5332,88.1313 Z M25.5322,86.6562 L22.6284,87.8784 C22.9531,87.4316 23.2744,86.8013 23.1592,86.1406 C23.0923,85.7505 22.9234,85.4614 22.7456,85.1543 C22.3916,84.5464 21.9902,83.8555 22.2764,82.0234 L25.5845,80.6245 L28.1372,80.8525 L28.1372,86.4052 L25.5322,86.6562 Z M25.6826,80.3584 L25.6826,78.8662 L28.1372,79.0854 L28.1372,80.5786 L25.6826,80.3584 Z M25.6826,78.5923 L25.6826,27.7412 L28.1372,27.9194 L28.1372,78.8115 L25.6826,78.5923 Z M25.5552,27.4575 L25.5054,27.4546 L23.3936,28.9492 C23.3633,28.8994 23.3404,28.8623 23.3326,28.8515 C22.5455,27.9511 22.8497,26.5004 22.8526,26.4853 L22.8965,26.2851 L22.7085,26.2065 C21.2192,25.5771 21.6045,23.8144 21.6216,23.7392 L21.6275,23.7094 C21.6514,23.4823 21.5762,23.2533 21.4512,23.0302 L24.2803,21.1005 L28.0742,21.3251 C28.1133,21.4994 28.1372,21.6601 28.1372,21.7924 L28.1372,27.6445 L25.5552,27.4575 Z M28.0723,19.7754 L28.0723,19.1436 L28.8506,18.6675 L28.8506,18.5752 L29.4795,18.2153 L35.3916,19.3574 L35.3916,19.4233 L37.3926,19.8452 L35.4605,21.4614 L29.5826,20.3725 L28.4864,20.9472 C28.3442,20.4326 28.1382,19.9316 28.0723,19.7754 L28.0723,19.7754 Z M29.6245,20.6582 L35.4082,21.7305 L35.4263,21.7603 C35.4634,21.8233 36.3296,23.3155 35.0513,24.2403 L34.9195,24.3375 L34.9566,24.4977 C35.1226,25.2077 35.4175,27.2863 34.6236,27.5167 L34.4127,27.5772 L34.4137,27.5826 L29.9137,27.0484 L29.8746,27.0435 L28.6295,27.6514 L28.6295,21.7925 C28.6295,21.6226 28.5997,21.4253 28.5543,21.2212 L29.6245,20.6582 Z M34.5562,30.8345 L46.3487,32.8404 L46.3487,45.1915 L34.5562,43.4205 L34.5562,30.8345 Z M36.4404,86.9775 L30.0342,86.5063 L30.0342,80.2792 L36.0806,80.7343 L36.1094,80.7695 C36.1153,80.7783 36.7622,81.5796 36.5923,82.7192 C36.5532,82.9804 36.4776,83.2983 36.3975,83.6362 C36.1245,84.7734 35.8062,86.1416 36.4404,86.9775 L36.4404,86.9775 Z M36.5986,87.2642 L35.7773,88.4336 L30.0341,88.0156 L30.0341,86.7793 L36.5986,87.2642 Z M36.0713,80.4585 L30.0342,80.0044 L30.0342,78.4326 L36.2593,78.9922 L36.0713,80.4585 Z M31.4575,34.4834 C31.7412,34.7813 32.0586,34.9336 32.3994,34.9336 C32.7632,34.9336 33.0864,34.7905 33.3603,34.5103 C33.6855,34.1783 33.9062,33.6714 34.0664,33.1207 L34.0644,64.5055 L34.5722,64.9855 L33.8632,66.7775 L33.8461,76.8097 L35.9423,78.6896 L30.0341,78.1584 L30.0341,30.1315 C30.2432,31.7944 30.6675,33.6494 31.4575,34.4834 L31.4575,34.4834 Z M30.1343,27.3516 L34.4575,27.8623 C34.5185,28.2852 34.5576,29.2876 34.1304,29.7593 L34.0674,29.8306 L34.0664,31.7632 C33.9453,32.7114 33.6924,33.7803 33.1645,34.3194 C32.9404,34.5484 32.6904,34.6592 32.3994,34.6592 C32.1323,34.6592 31.8891,34.5396 31.6562,34.2945 C30.4585,33.0312 30.0894,28.9194 30.1343,27.3516 L30.1343,27.3516 Z M36.0923,78.1626 L34.3384,76.5894 L34.3384,66.9156 L35.1543,64.8555 L34.5562,64.2945 L34.5562,45.8404 L46.4444,47.5445 L46.4444,79.2237 L36.0923,78.1626 Z M28.6294,86.4023 L28.6294,80.7822 L29.7603,80.3066 L29.7603,86.4863 L28.6294,86.4023 Z M29.7603,86.7583 L29.7603,87.9956 L28.6294,87.9126 L28.6294,86.6753 L29.7603,86.7583 Z M28.6294,80.4854 L28.6294,79.0054 L29.7603,78.4644 L29.7603,80.0093 L28.6294,80.4854 Z M28.6294,78.7002 L28.6294,27.9546 L28.6314,27.9546 L29.7603,27.4033 L29.7603,78.1592 L28.6294,78.7002 Z M28.6293,88.1885 L35.5405,88.6914 L35.8432,88.7925 C35.8525,88.8013 36.0893,89.0186 36.3744,90.3452 C36.6361,91.5644 36.4125,92.1123 36.0385,93.0185 C35.9452,93.2456 35.8451,93.4912 35.7411,93.7714 C35.2562,95.0844 36.0004,96.3412 36.2504,96.7094 C36.0722,97.3451 35.4062,100.2504 37.4501,102.2944 C39.1054,103.9492 38.7763,104.8213 38.3954,105.8315 C38.328,106.0102 38.2665,106.2002 38.2074,106.3906 L28.6293,105.8174 L28.6293,88.1885 L28.6293,88.1885 Z M36.8232,87.8013 L37.3261,87.0855 L37.1083,86.9463 C36.8495,86.7822 36.7084,86.5303 36.6322,86.2354 L60.264,88.6973 L60.264,90.2432 L36.8232,87.8013 Z M36.5771,85.9546 C36.5092,85.2944 36.7031,84.4702 36.8764,83.7505 C36.9594,83.4033 37.0375,83.0752 37.0805,82.7915 C37.2494,81.6582 36.7441,80.8144 36.5561,80.5464 L36.7832,78.7813 L36.4385,78.4722 L58.6465,80.7495 L58.7974,80.7656 L58.7974,49.0385 L34.5562,45.5634 L34.5562,43.6982 L58.7974,47.3393 L58.7974,34.6801 L34.5562,30.5566 L34.5562,30.3203 L34.5586,30.0156 C35.0552,29.3823 35.0064,28.3403 34.9595,27.9072 C35.9683,27.3564 35.6045,25.1904 35.4702,24.5405 C36.5283,23.6684 36.2925,22.3994 35.9502,21.6933 L36.6191,21.1342 L59.3925,25.4794 L59.3925,26.5902 L59.5414,26.6542 C59.5482,26.6571 60.2641,26.9721 60.2641,27.5941 L60.2641,88.4222 L36.5771,85.9546 Z M46.7183,79.2515 L46.7183,47.5835 L58.5235,49.2764 L58.5235,80.4615 L46.7183,79.2515 Z M46.6226,45.2324 L46.6226,32.8872 L58.5235,34.9111 L58.5235,47.0215 L46.6226,45.2324 Z M66.8296,19.8853 L66.6602,19.9263 L66.6246,20.0962 C66.6026,20.2031 66.1065,22.6602 67.2862,23.8042 L67.2862,24.9385 L61.5894,23.9903 L61.5376,23.9825 L60.4834,24.6715 L60.4834,17.3077 L61.5894,16.7306 L67.9512,17.8615 C67.9556,18.1934 67.9062,19.6274 66.8296,19.8853 L66.8296,19.8853 Z M67.9692,17.5874 L61.5903,16.4521 L61.5444,16.4443 L60.4492,17.0166 C60.3262,16.1104 59.8305,15.5483 59.5415,15.2993 L61.5894,13.9795 L71.5303,15.9434 L67.9692,17.5874 Z M74.8306,12.1816 L71.9273,14.0195 L71.9273,15.7422 L61.6973,13.7202 C61.7383,11.6626 61.1895,9.6494 60.9356,8.8354 L74.8306,12.1816 Z M59.5332,9.3516 L60.6426,8.8184 C60.8736,9.5332 61.4766,11.6255 61.4243,13.7593 L59.4233,15.0503 C59.2172,12.8355 58.4404,10.7105 58.1753,10.0405 L59.5332,9.3516 Z M58.7715,9.1855 L57.5454,9.8066 L57.6352,10.0185 C57.6464,10.0444 58.7163,12.5913 58.9423,15.1635 L39.2524,10.9164 L41.1152,9.9301 C41.1982,9.8862 41.2275,9.8002 41.2285,9.7123 L41.2285,7.3734 L43.8545,5.9471 L58.7715,9.1855 Z M28.2783,1.3862 L43.5293,4.8784 L44.0303,5.2593 L40.7534,7.0806 L40.7534,9.5205 L29.6142,7.1216 L29.6122,5.5703 C29.5985,5.4824 29.2592,3.3994 28.1845,1.6313 C28.1655,1.5971 28.1313,1.5751 28.0932,1.5673 C28.0654,1.5634 28.0395,1.5751 28.0141,1.5873 L28.2783,1.3862 Z M25.9604,3.4956 L28.0292,1.9043 C29.0131,3.5996 29.3383,5.5913 29.3402,5.5913 L29.3402,7.1665 L27.2684,8.8052 C26.9994,6.1524 26.1234,4.1123 25.889,3.6094 L25.9604,3.4956 Z M14.5342,9.1865 L13.7442,9.0654 L13.8052,8.8213 L12.9082,8.6934 L13.5322,7.9996 L21.4853,2.2247 C24.1264,2.5797 25.2924,2.7364 25.8124,2.8067 L25.3993,3.4634 C25.3524,3.5386 25.3651,3.6226 25.4022,3.6963 L25.388,3.7046 C25.3992,3.7275 26.5071,5.9873 26.7884,8.9492 L22.513,8.0644 C22.4744,8.0541 22.4373,8.0644 22.407,8.0864 L16.9021,11.9336 C16.9031,11.5024 16.781,10.8213 16.1252,10.2564 L15.9108,10.1216 L15.9123,10.1206 L14.5342,9.1865 Z M14.4043,11.0645 L15.4482,10.4112 L15.5771,10.4913 L15.6191,10.5377 L14.0083,11.5675 L14.4043,11.0645 Z M4.8105,19.8672 L4.1303,18.5825 L2.7563,17.2134 L1.5522,16.5113 L2.5205,15.3404 L8.9722,10.8414 L13.7754,11.0665 L12.8042,12.3004 L12.9282,12.4532 C12.9511,12.4815 15.1372,15.2056 15.4804,17.0997 L10.1503,16.4513 L10.1005,16.4454 L4.8173,19.8673 L4.8105,19.8673 L4.8105,19.8672 Z M8.7212,22.7246 C8.5274,22.4736 8.3613,22.2573 8.3106,22.1123 C8.1353,21.6006 8.6524,20.9995 8.6573,20.9941 L8.8956,20.7202 L7.1495,19.8945 L5.3116,19.8735 L10.1676,16.7295 L15.5114,17.3794 L15.5114,27.0073 L11.0026,26.6225 L10.9494,26.6181 L9.7346,27.5444 L9.7346,26.5112 L9.8606,26.2724 L9.8894,26.1874 C10.1465,24.5684 9.2896,23.4585 8.7212,22.7246 L8.7212,22.7246 Z M10.4014,36.0913 C9.9873,35.5923 10.0772,34.8945 10.0816,34.8486 C10.0816,34.8134 10.0733,33.9663 9.3433,32.8393 C8.7657,31.9453 9.1363,31.3505 9.1514,31.3281 L9.2642,31.1611 L8.0987,29.6953 L7.8404,29.5254 L9.7344,28.0606 L11.1934,26.9146 L15.5113,27.2823 L15.5113,34.9576 L12.8853,34.4112 L10.4014,36.0913 Z M13.1304,82.3345 L13.1304,34.7412 L15.5113,35.2363 L15.5113,82.5141 L13.1304,82.3345 Z M15.5112,82.7896 L15.5112,84.3526 L13.1303,84.1734 L13.1303,82.6094 L15.5112,82.7896 Z M10.7275,83.5332 L11.6894,82.9023 L11.6894,73.0385 L10.9326,73.4794 L10.9326,72.6532 L11.6684,72.2582 L11.6684,64.5722 L11.4213,64.5473 C10.8383,64.4911 10.9091,63.4653 10.9101,63.4545 L10.9184,63.3412 L10.8461,63.2553 C10.4452,62.7851 10.4794,62.1362 10.6005,61.8154 C10.6835,61.5913 10.9584,61.5361 10.9584,61.5361 L11.1855,61.4965 L11.1855,61.2665 C11.1855,60.9091 11.2832,60.7675 11.3271,60.7621 L11.6264,60.7904 L11.6264,59.6473 C11.6264,59.2244 11.3603,59.0223 11.1772,58.9574 C11.1005,58.9022 11.0595,58.8461 11.0522,58.7914 C11.0424,58.7064 11.1064,58.5995 11.1684,58.5385 C11.2695,58.4364 11.5712,58.2543 11.7363,58.1645 L11.8794,58.0864 L11.8794,56.3681 L11.8794,42.5121 C11.8794,39.1591 10.8672,38.077 10.8242,38.0331 L10.7265,37.9682 C10.5834,37.9125 10.5214,37.5195 10.5331,37.2553 L10.5331,36.3324 L12.8563,34.7601 L12.8563,82.3802 L10.7274,83.5794 L10.7274,83.5332 L10.7275,83.5332 Z M9.1353,85.2192 L10.7276,83.8945 L12.8565,82.6953 L12.8565,84.2095 L9.1353,85.8013 L9.1353,85.2192 Z M8.2515,87.0293 L8.2515,86.6343 L13.0166,84.4395 L15.5112,84.6285 L15.5112,86.4176 L13.0034,86.2457 L12.9756,86.2442 L9.5342,87.4146 L8.2515,87.0293 Z M9.8135,90.6436 C8.6333,88.9014 9.4844,87.8545 9.5205,87.8135 L9.6514,87.6636 L13.0113,86.5205 L15.5113,86.6924 L15.5113,92.0244 L12.9747,91.7783 L9.8604,92.9756 L9.8604,90.7144 L9.8135,90.6436 Z M9.9224,93.2432 L13.0122,92.0567 L15.5112,92.2984 L15.5112,93.6207 L12.9692,93.4654 L10.6836,94.4215 L9.9224,93.2432 Z M6.3145,111.1724 C6.6524,110.9292 6.9722,110.7002 7.0752,110.3306 C7.1055,110.2212 7.1294,110.1172 7.1523,110.0166 C7.2812,109.4502 7.3745,109.0415 8.7534,108.2666 C10.5742,107.2456 10.7666,106.0156 10.7754,105.9253 L10.7754,103.6123 L10.5015,103.6123 C9.6563,103.6123 9.4175,102.8345 9.4146,102.8252 C9.1075,101.2065 10.7564,100.1543 10.7725,100.1436 L10.9014,100.0635 L10.9014,97.8946 L10.8824,97.7935 C10.2095,96.0987 10.7486,94.7642 10.7545,94.7515 L10.7853,94.6744 L13.0167,93.7432 L15.5113,93.8955 L15.5113,108.9243 L5.2906,112.5693 C5.4175,111.8535 5.8613,111.4966 6.3145,111.1724 L6.3145,111.1724 Z M4.5884,119.0586 L3.2056,115.9595 L3.2056,114.0015 L5.2354,113.1285 L24.9283,106.0904 L46.6837,107.3907 C46.2286,108.2584 45.3844,108.8717 45.3766,108.8795 L45.2736,108.9537 L45.2736,109.8663 L44.3908,109.8033 L44.3908,110.6427 L43.5915,110.5797 L43.5915,112.8024 L40.8034,112.6466 L40.7844,112.8873 C40.7575,113.2384 40.6286,113.5274 40.4504,113.7657 L26.4216,112.9967 L26.3747,112.9943 L6.9294,119.3566 C6.2744,119.0518 5.1636,119.043 4.5884,119.0586 L4.5884,119.0586 Z M22.2632,135.1475 C22.1206,135.2413 21.9776,135.3389 21.8496,135.4532 C21.3784,135.8819 19.6885,138.294 19.4975,138.5684 L19.4272,138.668 L19.4545,138.7862 C19.9062,140.7745 19.5722,141.3399 19.4081,141.4903 C19.2235,141.6563 18.9784,141.5811 18.9701,141.5782 L18.6942,141.4825 L18.6161,141.7647 C18.3715,142.6543 15.6591,142.2344 14.1991,142.0088 L13.7904,141.9453 C13.4764,141.8984 13.1962,141.7734 12.9423,141.6133 C13.1225,141.0264 13.5395,139.4707 13.1625,138.6006 L15.0023,138.1426 L15.0511,138.1319 L18.8631,132.6749 C18.9871,132.4317 19.409,131.8067 19.8631,131.8067 L19.867,131.8067 C20.179,131.8077 20.4832,132.0997 20.7591,132.6456 C20.7723,132.6974 21.1112,133.8644 22.8524,134.2208 C22.8765,134.7314 22.6333,134.9043 22.2632,135.1475 L22.2632,135.1475 Z M33.6704,125.2246 L33.6455,125.2109 C32.7676,126.8964 31.2344,127.9394 30.3174,127.9394 C28.9326,127.9394 28.4776,129.6044 28.1782,130.705 C28.0874,131.04 28.0083,131.329 27.9262,131.5009 C27.8803,131.5976 27.8334,131.705 27.7841,131.8222 C27.3271,132.8827 26.8534,133.7451 25.5253,133.5351 C23.6322,133.2304 23.0175,133.8476 22.9252,133.957 C21.3422,133.6425 21.036,132.6211 21.0141,132.5508 C20.6772,131.876 20.2924,131.5342 19.8681,131.5322 L19.8632,131.5322 C19.1503,131.5322 18.6405,132.5068 18.6283,132.5332 L14.8871,137.8896 L12.7431,138.4238 L12.8442,138.583 C13.2763,139.2646 12.9004,140.7871 12.7075,141.4443 C11.9912,140.8867 11.5586,140.0527 11.4585,139.8437 L11.4585,123.6074 L11.1856,123.6074 C9.5142,123.6074 7.9786,121.1015 7.3985,119.7773 C7.3917,119.7607 7.3746,119.748 7.3653,119.7324 L26.4405,113.4902 L39.9586,114.2314 C39.4415,114.6025 38.8746,114.7441 38.8644,114.7465 L38.5265,114.8222 L38.7077,115.1161 C38.9006,115.4262 38.9533,115.6893 38.8674,115.8944 C38.7336,116.2142 38.2727,116.3802 38.1076,116.4183 L37.8996,116.4652 L37.9147,116.6752 C37.9904,117.7519 36.9064,117.8856 36.7824,117.8974 L36.5588,117.9169 L36.5588,118.3993 L35.5388,118.3993 L35.5388,119.3397 L35.5534,119.5418 L35.6784,119.5691 C35.6276,119.6882 35.4885,119.8933 35.3908,120.0379 C35.1457,120.3992 34.8693,120.8084 34.8254,121.2039 C34.7795,121.618 34.6384,121.7332 34.6076,121.743 L34.3464,121.743 L34.3615,122.0028 C34.4253,123.1357 34.1934,124.2197 33.6704,125.2246 L33.6704,125.2246 Z M56.0034,135.8428 C55.9546,135.9785 55.4941,136.3838 55.1245,136.708 C54.1465,137.5703 52.9282,138.6435 52.8374,139.6904 C52.8135,139.957 52.8003,140.2304 52.7895,140.499 C52.7236,141.8974 52.6215,142.5595 51.9135,142.6006 C51.8823,142.6065 49.2895,143.1738 46.6884,142.457 C46.8822,142.1347 47.1425,141.5849 47.0561,141.0449 C47.0102,140.7568 46.8735,140.5097 46.6474,140.3076 L48.5034,139.3955 L53.3945,132.8125 C53.5156,132.7354 54.2114,132.3145 54.7895,132.4795 C55.0751,132.5645 55.2944,132.7871 55.4433,133.1426 C55.8754,134.1807 56.5102,134.7217 57.1152,134.9434 C56.6484,135.1504 56.1323,135.4561 56.0034,135.8428 L56.0034,135.8428 Z M72.9844,116.9282 L72.7554,116.9785 L72.7686,117.2124 C72.7715,117.2563 72.8223,118.2871 71.9263,118.667 L71.7456,118.7441 L71.7602,118.9394 C71.7602,118.9482 71.8105,119.8505 70.3823,120.1298 L70.1611,120.1728 L70.1611,120.748 L69.2612,120.748 L69.3745,121.1054 C69.3906,121.1542 69.7495,122.3193 68.8823,122.7548 L68.7246,122.8339 L68.7314,123.0116 C68.7343,123.0419 68.8584,126.1415 67.1225,127.9589 C66.2841,128.8388 65.1342,129.2841 63.7075,129.2841 L63.5742,129.3183 C63.5273,129.3456 62.4165,129.9726 62.3535,131.0566 C62.3052,131.8759 60.6181,134.5283 57.8891,134.6562 C57.8251,134.6757 57.6982,134.7158 57.5434,134.7705 C56.9233,134.6758 56.1772,134.1963 55.6953,133.0381 C55.5132,132.6016 55.2344,132.3252 54.8652,132.2178 C54.1006,131.9912 53.2573,132.5733 53.2212,132.5996 L48.3525,139.1641 L46.1162,140.2637 L46.3144,140.3955 C46.5825,140.5742 46.7412,140.8076 46.7851,141.0859 C46.8632,141.5752 46.5893,142.1005 46.4155,142.3759 C46.0815,142.2724 45.7475,142.1493 45.4214,141.996 L44.1113,141.2704 L44.1113,125.3827 L34.2734,125.0731 C34.6801,124.1581 34.8906,123.1649 34.8613,122.16 C35.0376,122.0594 35.2524,121.8192 35.3144,121.2606 C35.3452,120.9842 35.5971,120.6131 35.7993,120.3133 C35.8403,120.2528 35.8755,120.1981 35.9136,120.1414 L43.8692,120.6473 L61.7964,114.7464 L61.9844,114.7235 L74.7793,115.7552 C74.4712,116.1353 73.8633,116.7363 72.9844,116.9282 L72.9844,116.9282 Z M78.9653,111.5186 L78.8662,111.5997 L78.8662,112.9684 L78.2246,112.9684 L78.2246,114.0197 L77.4365,114.0197 L77.4365,115.4484 L75.2744,115.2746 L75.0015,115.2766 L75.0015,115.2786 L61.9746,114.2327 L58.7383,114.6287 L58.7383,108.7879 L61.9136,108.3309 L70.8462,109.3158 L70.8433,109.3436 L79.6075,110.3099 C79.5454,110.6284 79.3813,111.1743 78.9653,111.5186 L78.9653,111.5186 Z" id="Shape"></path>
                        <path d="M49.0161,43.9634 L56.8882,45.1177 L56.8882,36.4966 L49.0161,35.1577 L49.0161,43.9634 Z M49.5083,35.7417 L56.396,36.9136 L56.396,44.5464 L49.5083,43.5386 L49.5083,35.7417 Z" id="Shape"></path>
                        <path d="M36.2759,42.0718 L44.148,43.2256 L44.148,34.604 L36.2759,33.2646 L36.2759,42.0718 Z M36.7681,33.8486 L43.6558,35.021 L43.6558,42.6548 L36.7681,41.647 L36.7681,33.8486 Z" id="Shape"></path>
                        <path d="M49.106,77.832 L56.917,78.6147 L56.917,50.937 L49.106,49.8286 L49.106,77.832 Z M49.5981,50.396 L56.4248,51.3648 L56.4248,78.0689 L49.5981,77.3868 L49.5981,50.396 Z" id="Shape"></path>
                        <path d="M66.1406,127.5 C66.1933,127.5381 66.2553,127.5566 66.3227,127.5566 C66.9277,127.5566 68.0537,125.7587 68.3447,124.9941 C68.4458,124.7275 68.3755,124.541 68.2998,124.4306 C68.0078,124.0077 67.1328,123.9648 66.8647,123.9755 C66.6694,123.9491 66.4887,123.9335 66.3247,123.9335 C65.4687,123.9335 65.1645,124.3212 65.0605,124.6425 C64.7544,125.5967 65.8115,127.2646 66.1406,127.5 M65.3218,124.7275 C65.4326,124.3779 65.7617,124.208 66.3247,124.208 C66.4756,124.208 66.6445,124.2217 66.8267,124.248 L66.8658,124.249 C67.2286,124.249 67.8907,124.3193 68.0748,124.5869 C68.1319,124.6689 68.1368,124.7705 68.0875,124.8984 C67.7599,125.7607 66.6847,127.2841 66.3229,127.2841 L66.299,127.2773 C66.0728,127.1152 65.0508,125.5713 65.3218,124.7275" id="Shape"></path>
                    </g>
                </g>
            </g>
        </g>
    </g>
</svg>
