<svg id="tardis" viewbox="270 180 150 150" xmlns="http://www.w3.org/2000/svg" viewBox="279.213 155.955 283 283">
  <path id="path" clip-path="url(#SVGID_2_)" fill="#69645C" d="M315.74 338.435h.33v-14.903l-.33-.034v14.937zM325.382 314.794v12.685h.329v-12.665c-.08-.005-.15.004-.236-.01-.034-.005-.06-.005-.093-.01M328.567 338.435h.329V310.41c-.13.295-.239.604-.329.912v27.112zM360.072 327.478h.33v-12.41a4.704 4.704 0 0 1-.33.208v12.202zM346.416 338.435h.33V323.76c-.11-.03-.22-.057-.33-.09v14.765zM311.44 338.435h.33v-16.56a5.734 5.734 0 0 1-.33-.49v17.05zM366.128 341.722h.329v-31.893a3.995 3.995 0 0 1-.33.187v31.706zM301.133 197.584l.133-.161h-9.756v.329h9.705zM370.43 197.752h18.647v-.33h-17.932zM374.188 181.927h-7.73v-1.162h-.33v1.162H360.4v-12.12h-.328v12.12h-13.326v-13.215h-.33v13.215h-17.52v-13.215h-.33v13.215h-2.857v-18.693h-.328v18.693h-9.313v-12.12h-.328v12.12h-3.971v-7.737h-.33v7.737h-12.906v.329h12.906v9.425l.33.015v-9.44h3.97v4.8l.33-.238v-4.562h9.312v1.22l.328.043v-1.263h2.284l.218-.166.355.08.33.076.043.01h17.476v4.968l.33.072v-5.04h13.327v7.545l.328-.167v-7.378h5.726v8.55l.33.08v-8.63h7.73zM301.085 259.112h10.33v.329h-10.33zM366.317 259.112h25.761v.329h-25.761zM300.233 287.214h10.173c.068-.173.089-.289.089-.289v-.04h-10.262v.33zM382.032 286.885h-11.059c.036.11.061.22.092.329h10.967v-.329zM304.234 299.952h-12.767v.33h12.914l-.072-.162zM371.976 300.282h15.534v-.329h-15.475c0 .05-.01.173-.06.33"/>
  <path id="path" clip-path="url(#SVGID_2_)" fill="#383632" d="M332.425 303.452h-.017a4.222 4.222 0 0 0-.571-.044c-.902 0-1.221.405-1.33.747-.323 1.006.794 2.765 1.14 3.013.056.04.12.06.189.06.638 0 1.826-1.9 2.133-2.708.104-.279.033-.475-.047-.59-.302-.436-1.201-.478-1.497-.478m1.287.972c-.356.938-1.481 2.53-1.876 2.53l-.03-.008c-.24-.173-1.326-1.811-1.038-2.708.12-.374.47-.555 1.069-.555.16 0 .34.013.533.042h.04c.386 0 1.09.077 1.287.361.062.09.067.2.015.338M366.14 308.5a.305.305 0 0 0 .183.057c.605 0 1.73-1.798 2.022-2.563.1-.267.03-.453-.045-.563-.292-.423-1.167-.466-1.435-.455a4.089 4.089 0 0 0-.54-.042c-.856 0-1.16.387-1.264.709-.307.954.75 2.622 1.08 2.857m-.82-2.772c.112-.35.44-.52 1.004-.52.15 0 .32.014.502.04l.039.001c.363 0 1.025.07 1.209.338.057.082.062.184.013.311-.328.863-1.403 2.386-1.765 2.386l-.024-.007c-.226-.162-1.248-1.706-.977-2.55M349.016 224.963l7.872 1.155v-8.621l-7.872-1.34v8.806zm.492-8.221l6.888 1.172v7.632l-6.888-1.007v-7.797zM336.276 223.072l7.872 1.154v-8.622l-7.872-1.34v8.808zm.492-8.223l6.888 1.172v7.634l-6.888-1.008v-7.798zM349.106 258.832l7.811.783v-27.678l-7.811-1.108v28.003zm.492-27.436l6.827.969v26.704l-6.827-.682v-26.991zM336.308 257.525l7.931.794v-27.9l-7.93-1.125v28.231zm.492-27.664l6.948.985v26.928l-6.948-.694V229.86z"/>
  <path id="path" clip-path="url(#SVGID_2_)" fill="#383632" d="M371.471 289.861c.338-1.629-.096-3.393-1.29-5.249-1.068-1.66-.778-4.336-.775-4.363l.016-.137-.102-.094c-.654-.602-1.036-3.117-.288-4.73.662-1.43.294-2.515.089-2.942l1.064-1.12.112-.12.098-.103-.312-.17c-1.31-.716-1.293-2.413-.88-3.648.391-1.179-.098-1.998-.492-2.348v-1.974l-2.145-2.124v-9.525l.552-.947-.552-.865v-33.56c.496-.757.464-1.357.393-1.663.614-.62.297-2.13.134-2.743 1.199-.87 1.046-2.183.738-2.914l2.196-2.268-2.193-.36v-1.337l-.098-.082c-.893-.756-.69-2.56-.603-3.109 1.224-.418 1.36-1.888 1.367-2.42l3.975-1.835v-1.79l3.741-2.368-15.571-3.75-1.143.58-14.873-3.226.404-.22-1.219-.93-15.538-3.583-.124-.028-1.987 1.505c-.723-.096-4.716-.634-4.716-.634l-.108-.014-8.173 5.941-1.355 1.496 1.314.187-.065.262 1.221.138.626.427-.696.436-5.4-.255-6.636 4.628-1.46 1.75 1.68.965 1.27 1.25.814 1.536h2.488l1.07.506c-.195.314-.428.842-.246 1.37.08.23.262.467.496.77.534.691 1.264 1.635 1.065 2.997l-.136.258-.031 1.476-2.332 1.805.847.481.9 1.13c-.134.323-.299 1.032.281 1.93.62.956.65 1.672.655 1.672-.01.053-.135.962.448 1.65v.781c-.005.1-.033.937.47 1.206.152.198.876 1.284.876 4.066v13.551l-.632.473v1.326l.632-.442v.344c-.163.095-.42.256-.553.387-.072.075-.31.345-.27.7.017.162.101.396.402.588l.09.036c.001 0 .079.024.079.173v.631a.665.665 0 0 0-.145.101c-.163.147-.26.377-.289.684a1.007 1.007 0 0 0-.56.559c-.136.364-.245 1.213.272 1.9-.013.503.136 1.294.764 1.517v6.892l-.737.393v2.109l.758-.442v8.616l-.963.63v.524l-1.593 1.326v.826l-.882.534v.99l1.187.356c-.26.519-.549 1.609.42 3.087v2.426l.886 1.373c-.136.415-.452 1.691.156 3.266v1.822c-.439.315-1.802 1.45-1.473 3.183.106.379.52 1.063 1.347 1.19l.003 1.745c-.002.01-.18 1.025-1.745 1.904-1.593.894-1.72 1.456-1.868 2.106a5.72 5.72 0 0 1-.07.287c-.052.185-.284.35-.553.544-.525.376-1.235.884-1.302 2.039l-2.035.875v2.378l1.582 3.604.188-.01c1.066-.057 2.34.09 2.47.384.178.409 1.758 3.875 4.013 4.142v15.765l.022.108c.04.089.963 2.204 2.775 2.475l.408.063c1.841.284 4.321.671 4.932-.405.224.01.49-.037.72-.243.522-.466.603-1.487.246-3.119.557-.793 1.86-2.61 2.203-2.924.106-.096.228-.175.348-.253.382-.252.855-.565.842-1.343.185-.125.753-.389 2.032-.187 1.845.297 2.472-1.166 2.848-2.038.047-.108.091-.212.133-.302.103-.216.188-.527.286-.885.272-.998.644-2.365 1.611-2.365 1.072 0 2.736-1.07 3.732-2.872l9.514.298v15.682l1.609.89c1.503.707 3.105.892 4.379.892 1.385 0 2.383-.22 2.437-.234 1.228-.067 1.29-1.42 1.347-2.617.012-.261.025-.528.047-.788.072-.829 1.247-1.863 2.105-2.618.621-.547.95-.845 1.036-1.102.088-.268.857-.64 1.455-.824 3.08-.136 4.863-3.103 4.922-4.104.038-.666.688-1.132.884-1.257 1.548-.017 2.806-.52 3.737-1.497 1.672-1.755 1.768-4.47 1.76-5.179.707-.453.786-1.276.697-1.86h.731v-.679c1.27-.327 1.532-1.14 1.584-1.518.83-.438.992-1.281 1.02-1.69 1.164-.337 1.866-1.239 2.092-1.575l2.578.207v-1.474h.788v-1.05h.642v-1.664c.705-.668.774-1.723.777-1.77l.015-.26-8.734-.962zm-2.935-14.803c-.786 1.697-.48 4.347.315 5.26-.05.585-.175 2.963.87 4.59 1.133 1.761 1.529 3.413 1.19 4.92l-6.16-.675c.266-1.963.18-2.966-1.098-4.971-1.314-2.063-.7-4.092-.694-4.112l.02-.068-.041-.056c-.543-.709-.46-3.419-.042-5.504.26-1.302-.268-2.056-.663-2.426l6.303.407.02.031c.03.044.688 1.073-.02 2.604m-6.89-12.183v1.68l-.89.463v-1.66l.89-.483zm-.89.17v-48.918l.89-.375v48.814h-.002l-.888.48zm.89 1.82v5.594l-.89.365v-5.497l.89-.463zm.01 5.885v1.003l-.9.317v-.95l.9-.37zm.124 1.25c.231.138 1.162.808.846 2.388-.36 1.805-.575 4.716.052 5.667-.103.382-.52 2.288.744 4.275 1.238 1.94 1.318 2.863 1.056 4.793l-2.572-.28-1.15.163v-16.645l1.024-.361zm6.772.15l-6.623-.429v-1.028l7.545.486-.922.971zm.13-5.139c-.414 1.242-.448 2.887.585 3.88l-7.338-.473v-.076l-.009.004v-5.563l6.244.311v.02l.118.081c.01.006.814.577.4 1.816m-.517-2.193l-6.245-.31v-1.657l6.245.253v1.714zm-.278-2l-5.967-.242v-47.805c.03 1.663.235 4.576 1.282 5.665.278.29.603.437.964.437.467 0 .873-.177 1.203-.527.286-.3.495-.705.65-1.152v30.368l.458.717-.458.787v9.902l1.868 1.85zm-5.967-49.011v-.108h.002c0 .03 0 .069-.002.108m.276-.077l4.193.462.007.013c.01.022.252.556-.329 1.397l-.048.07v2.361c-.132.805-.38 1.632-.849 2.125-.282.298-.61.442-1.004.442-.288 0-.539-.116-.767-.354-1.26-1.31-1.222-5.688-1.203-6.517m4.435-2.642l-.175.11.06.2c.255.865.422 2.197-.013 2.447l-.119.073-4.586-.507-.036-.004-1.006.424v-5.236-.006l1.062-.765 5.43.748.012.025c.034.064.82 1.586-.629 2.491m1.09-4.659l1.186.197-1.623 1.674-5.535-.763-1.052.756c-.134-.541-.572-.878-.813-1.016v-.755l1.752-1.11 5.65.945v.001l.427.07.007.001zm-31.56 93.922a.36.36 0 0 0-.13-.168v-.29h1.02v-.54c.561-.12 1.331-.539 1.36-1.512.264-.094.724-.315.91-.753.12-.285.105-.604-.046-.948.416-.142 1.156-.476 1.612-1.13l17.635 1.138.761-.093-15.478 5.095-7.649-.487a.465.465 0 0 0 .005-.312m4.976-5.818c.044-.116.084-.236.109-.366l2.838.158v-2.212l.798.063v-.844l.884.063v-1.193c.215-.17.724-.61 1.128-1.213l11.353.81v5.841l-17.11-1.107zm17.374-5.203l-11.359-.817c.042-.089.098-.167.133-.26l.117-.312-8.686-.519c.047-.139.09-.28.14-.415.404-1.071.822-2.18-1.057-4.06-2.04-2.04-1.053-5.174-1.044-5.206l.04-.123-.079-.104c-.01-.012-.981-1.3-.513-2.57.102-.273.2-.516.293-.736.38-.927.655-1.596.36-2.967-.13-.607-.326-1.321-.567-1.675l.355-.507 23.62 2.46v17.56l-1.753.25zm-38.193-2.3a2.568 2.568 0 0 1-.183-1.975c.372-1.183 1.604-2.037 1.66-2.082 1.616-1.739 1.835-4.377 1.86-4.798.147-.315.764-1.924-.416-4.64-.597-1.38-.504-2.162-.35-2.589.188-.52.852-.826.852-.826l1.835-.716 2.561-.213v17.598l-3.229-.193-.05-.003-3.618 1.29.016-.059c-.378-.1-.71-.38-.938-.794m.305-92.802c-.007.189 0 .403.023.628l-4.7 3.125c-.35-1.789-2.035-4.066-2.514-4.682l.06-.076 2.32-1.484c.307.291.477.596.567.862.064.346.006.618.001.638l-.062.26 4.305.729zm15.152 4.229c-.85-.575-.624-2.078-.53-2.548 1.393-.376 1.755-1.564 1.754-2.445l22.992 4.906v7.493l-.536.352-22.563-4.307 1.595-1.333-2.604-.55v-1.495l-.108-.073zm-.383.328v1.293l-5.91-1.141-.05-.01-.581.334v-6.73l.931-.814 6.694 1.358c.04.25.26 2.014-1.49 2.39l-.149.034-.038.146c-.025.091-.564 2.215.593 3.14m1.591-5.604c-.002-.019 0-.043-.003-.062l1.897-1.004 20.2 4.35s.763.69.887 1.62l-22.98-4.904zm-.464-.375l-6.75-1.37-.066-.014-.983.86-1.35-2.209 2.141-1.693 10.926 2.353-3.918 2.073zm-8.918 8.118c.091.212.27.676.396 1.123l-3.747-.222-.047-.002-2.898 1.976c-.339-.462-.865-.87-1.208-1.105l4.034-2.81 3.45.242v.7l.02.098zm.003-1.07l-3.548-.25-1.918 1.278v-1.463a2.634 2.634 0 0 0 .468-2.272l-.03-.09-.08-.048c-1.274-.756-1.448-2.03-1.369-2.967l.02-.226s.042-.317.206-.579l2.374-1.527 4.631.943v6.74l-.754.46zm.573-7.517l-4.385-.893-1.054-2.052 4.164.86 1.275 2.085zm-4.655-.82l-2.73 1.74a3.384 3.384 0 0 0-.12.478l-3.572-.605 5.336-3.729 1.087 2.117zm-2.832 3.64c.136.766.518 1.621 1.465 2.22a2.163 2.163 0 0 1-.453 1.8l-.056.07v1.766l-2.441 1.703.324.195c.651.395 1.665 1.217 1.608 1.748 0 .005 0 .011-.002.016l-5.133 3.158v-9.56l4.688-3.116zm.395 9.871c-.067.798.133 1.973 1.252 2.55-.066.477-.15 1.712.604 2.571.006.01.654 1.022.654 2.026v.217c-.002.31-.003.714.016 1.145l-6.715 4.12-.065.04v12.875l7.222-4.524v1.976l-7.157 4.41-.065.04v31.06l3.899-1.719 1.043 1.237c-.28 1.93.177 2.717.546 3.351.163.28.303.52.355.823.114.654-.377 1.317-.692 1.67l-5.978 2.704-.001-63.445 5.082-3.127zm-3.206 28.957v27.382l5.101-2.339-2 2.377-3.876 1.71v-30.49l6.95-4.279v1.842l-6.175 3.797zm6.174-3.218v15.451l-1.152 1.53 1.325 1.051v8.748l-.504.6-5.35 2.453V234.26l5.681-3.494zm-2.33 30.52l2.995-3.56v-9.165l-1.134-.903.961-1.277v-30.323c.11.102.23.196.37.267l.083.043.07-.061c.051-.046.201-.266.34-1.297v44.628l-3.686 1.648zm3.685-1.349v1.465l-3.23 1.366-.848-1.006 4.078-1.825zm-7.37-40.84l-.115.073v9.031l6.13-3.877v1.402l-6.948 4.351V217.85l6.524-4.005c.038.557.112 1.135.271 1.607l-5.861 3.645zm6.015-3.159v7.803l-5.637 3.567v-7.865l5.637-3.505zm.872.079c-.207-.133-.36-.327-.489-.548-.355-.792-.353-2.261-.349-3.076v-.219c0-.796-.335-1.56-.56-1.985l1.88-1.329c-.011 5.436-.363 6.84-.482 7.157m-2.09 54.15a1.643 1.643 0 0 0-.394.571c-.03.073-.038.16-.06.238l-6.378 2.803V271.9l5.515-2.495 1.317.762zm-.54 1.146c-.082.658.08 1.466.494 2.418 1.188 2.737.414 4.248.407 4.261l-.03.11c0 .027-.132 2.814-1.691 4.5-.058.037-1.385.956-1.81 2.304a3.071 3.071 0 0 0 .222 2.363c.198.357.466.632.773.82l-4.657 1.66v-15.67l6.292-2.767zm3.238-2.182l-2.094.813-1.113-.642 3.254-1.376 2.557-.247v1.236l-2.604.216zm0-1.475l-2.905 1.222c.325-.446.646-1.077.531-1.737-.067-.39-.236-.68-.413-.987-.354-.608-.756-1.298-.47-3.13l3.309-1.4 2.552.228v5.553l-2.605.251zm.15-6.298v-1.492l2.454.22v1.493l-2.454-.22zm0-1.766v-50.85l2.454.177v50.893l-2.454-.22zm-.128-51.134l-.05-.003-2.111 1.494a2.576 2.576 0 0 0-.061-.098c-.788-.9-.483-2.35-.48-2.366l.043-.2-.188-.078c-1.489-.63-1.104-2.393-1.086-2.468l.005-.03c.024-.227-.05-.456-.176-.679l2.83-1.93 3.793.225c.04.174.063.335.063.467v5.853l-2.582-.188zm2.517-7.683v-.631l.779-.477v-.092l.628-.36 5.913 1.142v.066l2 .422-1.932 1.616-5.877-1.089-1.097.575a10.333 10.333 0 0 0-.414-1.172m1.553.883l5.783 1.073.018.03c.037.062.904 1.555-.375 2.48l-.131.096.037.16c.166.71.46 2.79-.333 3.02l-.211.06v.006l-4.5-.535-.038-.005-1.246.608v-5.859c0-.17-.03-.367-.075-.57l1.07-.564zm4.931 10.177l11.793 2.005v12.351l-11.793-1.77v-12.587zm1.884 56.143l-6.406-.472v-6.227l6.047.455.028.036c.006.008.653.81.483 1.95-.039.26-.114.578-.195.916-.272 1.137-.59 2.506.043 3.341m.159.287l-.822 1.17-5.743-.418v-1.237l6.565.485zm-.528-6.805l-6.037-.455v-1.571l6.225.56-.188 1.466zm-4.614-45.976c.284.298.602.45.942.45.364 0 .687-.143.961-.423.325-.332.546-.839.706-1.39l-.002 31.385.508.48-.709 1.792-.017 10.033 2.096 1.88-5.908-.532v-48.027c.21 1.663.634 3.518 1.423 4.352m-1.323-7.131l4.323.51c.061.423.1 1.426-.327 1.897l-.063.072v1.932c-.122.948-.375 2.017-.902 2.556-.225.23-.475.34-.766.34-.267 0-.51-.12-.743-.364-1.197-1.264-1.567-5.376-1.522-6.943m5.958 50.81l-1.754-1.573v-9.673l.816-2.06-.598-.561V226.84l11.888 1.704v31.68l-10.352-1.061zm-7.463 8.24v-5.62l1.131-.475v6.18l-1.13-.085zm1.131.356v1.238l-1.13-.083v-1.238l1.13.083zm-1.13-6.273v-1.48l1.13-.54v1.544l-1.13.476zm0-1.785v-50.745h.001l1.13-.552v50.756l-1.132.541zm0 9.488l6.91.503.303.102c.01.008.246.226.531 1.552.262 1.22.038 1.767-.336 2.673-.093.228-.193.473-.297.753-.485 1.313.26 2.57.51 2.938-.179.636-.845 3.541 1.2 5.585 1.654 1.655 1.325 2.527.944 3.537-.067.18-.128.37-.188.56l-9.578-.574v-17.629zm8.193-.387l.503-.715-.218-.14c-.259-.164-.4-.416-.476-.71l23.632 2.461v1.546l-23.44-2.442zm-.246-1.846c-.068-.66.126-1.485.3-2.204.082-.348.16-.676.203-.96a3.17 3.17 0 0 0-.524-2.245l.227-1.765-.345-.309 22.208 2.278.151.016v-31.727l-24.24-3.476v-1.865l24.24 3.641V215.68l-24.24-4.123v-.237l.002-.304c.496-.634.447-1.676.4-2.109 1.01-.55.645-2.717.511-3.366 1.058-.873.822-2.142.48-2.848l.67-.559 22.772 4.345v1.111l.15.064c.006.003.722.318.722.94v60.828l-23.687-2.467zm10.141-6.703v-31.668l11.805 1.692v31.186l-11.805-1.21zm-.095-34.02v-12.345l11.9 2.024v12.11l-11.9-1.789zm20.207-25.347l-.17.041-.035.17c-.022.107-.518 2.564.661 3.708v1.135l-5.697-.949-.051-.008-1.055.69v-7.364l1.106-.577 6.362 1.13c.005.332-.045 1.766-1.121 2.024m1.14-2.298l-6.38-1.135-.046-.008-1.095.573a2.758 2.758 0 0 0-.907-1.718l2.047-1.32 9.941 1.964-3.56 1.644zm6.86-5.405l-2.903 1.838v1.722l-10.23-2.022c.041-2.057-.508-4.07-.761-4.885l13.895 3.347zm-15.297-2.83l1.11-.534c.23.715.834 2.807.781 4.941l-2 1.291c-.207-2.215-.984-4.34-1.249-5.01l1.358-.688zm-.762-.167l-1.226.622.09.212c.011.025 1.081 2.572 1.307 5.145l-19.69-4.248 1.863-.986c.083-.044.113-.13.114-.218v-2.339l2.626-1.426 14.916 3.238zm-30.493-7.799l15.251 3.492.501.381-3.277 1.822v2.44l-11.139-2.4-.002-1.55c-.014-.089-.353-2.172-1.428-3.94a.133.133 0 0 0-.09-.064c-.029-.004-.055.008-.08.02l.264-.2zm-2.318 2.11l2.07-1.592c.983 1.696 1.308 3.687 1.31 3.687v1.576l-2.072 1.638c-.269-2.653-1.145-4.693-1.379-5.196l.071-.113zm-11.426 5.69l-.79-.12.061-.245-.897-.128.624-.693 7.953-5.775c2.641.355 3.807.511 4.327.582l-.413.656c-.047.076-.034.16.003.233l-.014.009c.011.022 1.12 2.282 1.4 5.244l-4.275-.885a.124.124 0 0 0-.106.022l-5.505 3.848a2.161 2.161 0 0 0-.777-1.678l-.214-.134.001-.001-1.378-.935zm-.13 1.879l1.044-.654.13.08.041.047-1.61 1.03.395-.504zm-9.594 8.802l-.68-1.284-1.374-1.37-1.204-.702.968-1.17 6.452-4.5 4.803.226-.97 1.233.123.153c.023.029 2.21 2.753 2.552 4.647l-5.33-.649-.05-.006-5.283 3.422h-.007zm3.911 2.858c-.194-.251-.36-.468-.41-.613-.176-.511.341-1.112.346-1.118l.239-.274-1.747-.825-1.837-.022 4.856-3.143 5.343.65v9.627l-4.508-.384-.054-.005-1.214.926v-1.033l.126-.239.028-.085c.257-1.619-.6-2.729-1.168-3.462m1.68 13.366c-.414-.499-.324-1.197-.32-1.242 0-.036-.008-.883-.738-2.01-.577-.894-.207-1.489-.192-1.51l.113-.168-1.165-1.466-.259-.17 1.894-1.464 1.46-1.146 4.317.367v7.676l-2.626-.547-2.484 1.68zm2.73 46.243v-47.593l2.38.495v47.278l-2.38-.18zm2.38.456v1.563l-2.38-.18v-1.564l2.38.18zm-4.784.743l.962-.63v-9.864l-.756.44v-.826l.735-.395v-7.686l-.247-.025c-.583-.056-.512-1.082-.51-1.092l.007-.114-.072-.086c-.4-.47-.367-1.119-.245-1.44.083-.224.357-.279.357-.279l.228-.04v-.23c0-.357.097-.499.141-.504l.3.028v-1.143c0-.423-.267-.625-.45-.69-.076-.055-.117-.11-.125-.166-.01-.085.054-.192.116-.253.102-.102.403-.284.568-.374l.143-.078v-15.574c0-3.353-1.012-4.435-1.055-4.479l-.097-.065c-.144-.056-.206-.449-.194-.713v-.923l2.323-1.572v47.62l-2.129 1.2v-.047zm-1.592 1.686l1.593-1.324 2.128-1.2v1.514l-3.72 1.592v-.582zm-.883 1.81v-.395l4.765-2.195 2.494.19v1.789l-2.508-.172-.027-.002-3.442 1.17-1.282-.385zm1.561 3.615c-1.18-1.743-.329-2.79-.293-2.83l.131-.15 3.36-1.144 2.5.172v5.332l-2.536-.246-3.115 1.198v-2.262l-.047-.07zm.11 2.6l3.09-1.187 2.498.241v1.323l-2.542-.156-2.285.956-.762-1.178zm-3.608 17.928c.337-.243.657-.472.76-.841.03-.11.054-.214.077-.314.13-.567.222-.976 1.601-1.75 1.821-1.021 2.014-2.251 2.022-2.342v-2.313h-.274c-.845 0-1.084-.778-1.086-.787-.308-1.618 1.341-2.67 1.357-2.681l.13-.08v-2.17l-.02-.1c-.673-1.695-.133-3.03-.128-3.042l.031-.078 2.232-.93 2.494.152v15.028l-10.22 3.645c.127-.716.57-1.072 1.024-1.397m-1.727 7.887l-1.382-3.1v-1.958l2.03-.873 19.692-7.038 21.756 1.3c-.455.868-1.3 1.482-1.307 1.49l-.103.074v.912l-.883-.063v.84l-.8-.063v2.222l-2.788-.155-.019.24c-.026.351-.155.64-.334.879l-14.028-.77-.047-.002-19.446 6.363c-.655-.305-1.765-.314-2.34-.298m17.674 16.088a3.509 3.509 0 0 0-.413.306c-.472.429-2.162 2.841-2.353 3.115l-.07.1.028.118c.451 1.989.117 2.554-.047 2.704-.184.166-.43.091-.438.088l-.276-.095-.078.282c-.244.89-2.957.47-4.417.244l-.409-.064a2.195 2.195 0 0 1-.848-.332c.18-.587.598-2.142.22-3.012l1.84-.458.05-.011 3.811-5.457c.124-.243.546-.868 1-.868h.004c.312 0 .616.293.892.839.013.051.352 1.218 2.093 1.575.025.51-.219.683-.589.926m11.407-9.922l-.025-.014c-.877 1.685-2.41 2.728-3.328 2.728-1.384 0-1.84 1.665-2.139 2.766-.09.335-.17.624-.252.796a7.925 7.925 0 0 0-.142.321c-.457 1.06-.93 1.923-2.259 1.713-1.893-.305-2.508.313-2.6.422-1.583-.314-1.889-1.336-1.91-1.406-.338-.675-.723-1.017-1.147-1.019h-.005c-.713 0-1.223.975-1.235 1.001l-3.74 5.357-2.145.534.101.159c.432.682.056 2.204-.137 2.861-.716-.557-1.148-1.391-1.249-1.6v-16.237h-.272c-1.672 0-3.207-2.506-3.788-3.83-.006-.016-.023-.029-.033-.045l19.075-6.242 13.519.741a3.568 3.568 0 0 1-1.095.515l-.338.076.182.294c.193.31.245.573.16.778-.134.32-.595.486-.76.524l-.208.047.015.21c.075 1.077-1.009 1.21-1.133 1.222l-.223.02v.482h-1.02v.94l.014.203.125.027c-.05.12-.19.324-.287.469-.245.361-.522.77-.566 1.166-.046.414-.187.53-.217.539h-.262l.015.26a6.139 6.139 0 0 1-.69 3.222m22.332 10.618c-.048.135-.509.54-.878.865-.978.862-2.197 1.935-2.288 2.982-.023.267-.037.54-.047.809-.066 1.398-.169 2.06-.877 2.102-.03.006-2.624.573-5.225-.144.194-.322.455-.872.368-1.412a1.226 1.226 0 0 0-.409-.737l1.856-.912 4.892-6.583c.12-.078.816-.498 1.395-.333.285.084.504.307.653.663.432 1.038 1.067 1.579 1.672 1.8-.467.207-.983.513-1.112.9m16.981-18.915l-.229.05.014.234c.002.044.053 1.075-.843 1.455l-.18.077.014.195c0 .01.05.911-1.378 1.19l-.22.044v.575h-.9l.112.357c.017.05.375 1.214-.492 1.65l-.157.079.006.178c.003.03.127 3.13-1.609 4.947-.838.88-1.988 1.325-3.415 1.325l-.133.034c-.047.028-1.158.655-1.22 1.739-.049.819-1.736 3.471-4.465 3.6-.064.019-.19.059-.346.113-.62-.094-1.366-.574-1.848-1.732-.182-.436-.46-.713-.83-.82-.764-.227-1.608.355-1.644.382l-4.869 6.564-2.236 1.1.198.132c.268.178.427.412.471.69.078.49-.196 1.015-.37 1.29a7.66 7.66 0 0 1-.994-.38l-1.31-.726v-15.887l-9.838-.31a6.697 6.697 0 0 0 .588-2.913c.177-.1.391-.34.453-.9.031-.276.283-.647.485-.947l.115-.172 7.955.506 17.927-5.9.188-.023 12.795 1.031c-.308.38-.916.981-1.795 1.173m5.981-5.41l-.099.082v1.368h-.641v1.052h-.789v1.428l-2.162-.173-.272.002v.002l-13.027-1.046-3.237.396v-5.841l3.176-.457 8.932.985-.003.028 8.764.966c-.062.318-.226.864-.642 1.209"/>
</svg>
